<svg xmlns="http://www.w3.org/2000/svg" viewBox="0 0 1102.21 254.17">
          <path class="a" d="M542.45 21.67V0"></path>
          <path class="b" d="M522.09 120.41l-.39-.66h2.25V86.5h3.62v-3.75h4.5l-4-6.5h4.13V62.62h3.87V42.25h3.05V31.33c0-9.33 3.33-9.66 3.33-9.66s3.33.33 3.33 9.66v10.92h3v20.37h3.88v13.62h4.12l-4 6.5h4.5v3.75h3.63v33.25h2.25l-2.13 3.63v82.25h-37.2v-82.24l-1.74-3M523.95 119.75h37M523.83 123.38h37.24M557.32 86.5h-29.75M532.07 82.75h20.75M536.07 62.63h12.75M539.11 42.25h6.67"></path>
          <path class="a" d="M541.07 42.25v20.38M544.07 42.25v20.38"></path>
          <path class="b" d="M539.11 31.75h6.67M532.2 76.25h20.5"></path>
          <path class="a" d="M526.83 99.62h5.37v13.76h-5.37zM535.83 99.62h5.37v13.76h-5.37zM543.83 99.62h5.37v13.76h-5.37zM552.83 99.62h5.37v13.76h-5.37zM526.95 125.83h2.58v2.59h-2.58zM533.95 125.83h2.58v2.59h-2.58zM540.95 125.83h2.58v2.59h-2.58zM547.95 125.83h2.58v2.59h-2.58zM554.95 125.83h2.58v2.59h-2.58z"></path>
          <circle class="b" cx="542.57" cy="151.5" r="12.38"></circle>
          <circle class="b" cx="542.57" cy="151.5" r="6.89"></circle>
          <path class="a" d="M542.57 158.39v-6.89h4.94"></path>
          <path class="b" d="M523.95 136.33h37.12"></path>
          <path class="a" d="M526.82 183.33h5.38v13.83h-5.38zM535.82 183.33h5.38v13.83h-5.38zM543.82 183.33h5.38v13.83h-5.38zM552.82 183.33h5.38v13.83h-5.38z"></path>
          <path class="b" d="M523.82 205.63H490.7l-9 17.12h124.75l-10.25-17.12h-35.13M483.95 222.75v30.5h120v-30.5"></path>
          <path class="a" d="M489.95 222.75v22.58h2.66v7.92M509.95 222.75v22.58h2.66v7.92M504.61 222.75v22.58h-2.66v7.92M534.95 222.75v22.58h2.66v7.92M529.61 222.75v22.58h-2.66v7.92M598.61 222.75v22.58h-2.66v7.92M578.61 222.75v22.58h-2.66v7.92M583.95 222.75v22.58h2.66v7.92M553.61 222.75v22.58h-2.66v7.92M558.95 222.75v22.58h2.66v7.92M492.61 225.33h9.33v7h-9.33z"></path>
          <path class="a" d="M492.62 240.5h10.67s-.67-5.5-5.5-5.5-5.17 5.5-5.17 5.5zM586.61 225.33h9.33v7h-9.33zM585.62 240.5h10.67s-.67-5.5-5.5-5.5-5.17 5.5-5.17 5.5zM512.08 240.83h14.75s1.57-16-7.37-16-7.38 16-7.38 16zM537.08 240.83h14.75s1.57-16-7.37-16-7.38 16-7.38 16zM561.08 240.83h14.75s1.57-16-7.37-16-7.38 16-7.38 16z"></path>
          <path class="b" d="M310.78 216.83v30.5h173.17"></path>
          <path class="a" d="M310.78 219.67h172.54M314.7 247.33s-.87-13.33 5.13-13.33M324.78 247.33s.88-13.33-5.12-13.33M326.7 247.33s-.87-13.33 5.13-13.33M336.78 247.33s.88-13.33-5.12-13.33M338.7 247.33s-.87-13.33 5.13-13.33M348.78 247.33s.88-13.33-5.12-13.33M350.7 247.33s-.87-13.33 5.13-13.33M360.78 247.33s.88-13.33-5.12-13.33M362.7 247.33s-.87-13.33 5.13-13.33M372.78 247.33s.88-13.33-5.12-13.33M374.7 247.33s-.87-13.33 5.13-13.33M384.78 247.33s.88-13.33-5.12-13.33M386.7 247.33s-.87-13.33 5.13-13.33M396.78 247.33s.88-13.33-5.12-13.33M398.7 247.33s-.87-13.33 5.13-13.33M408.78 247.33s.88-13.33-5.12-13.33M410.7 247.33s-.87-13.33 5.13-13.33M420.78 247.33s.88-13.33-5.12-13.33M422.7 247.33s-.87-13.33 5.13-13.33M432.78 247.33s.88-13.33-5.12-13.33M434.7 247.33s-.87-13.33 5.13-13.33M444.78 247.33s.88-13.33-5.12-13.33M446.7 247.33s-.87-13.33 5.13-13.33M456.78 247.33s.88-13.33-5.12-13.33M458.7 247.33s-.87-13.33 5.13-13.33M468.78 247.33s.88-13.33-5.12-13.33M470.7 247.33s-.87-13.33 5.13-13.33M480.78 247.33s.88-13.33-5.12-13.33M314.66 232.42h10.17v-6.25h-1.62s.16-4.67-3.54-4.67-3.54 4.67-3.54 4.67h-1.46v6.25zM326.66 232.42h10.17v-6.25h-1.62s.16-4.67-3.54-4.67-3.54 4.67-3.54 4.67h-1.46v6.25zM338.66 232.42h10.17v-6.25h-1.62s.16-4.67-3.54-4.67-3.54 4.67-3.54 4.67h-1.46v6.25zM350.66 232.42h10.17v-6.25h-1.62s.16-4.67-3.54-4.67-3.54 4.67-3.54 4.67h-1.46v6.25zM362.66 232.42h10.17v-6.25h-1.62s.16-4.67-3.54-4.67-3.54 4.67-3.54 4.67h-1.46v6.25zM374.66 232.42h10.17v-6.25h-1.62s.16-4.67-3.54-4.67-3.54 4.67-3.54 4.67h-1.46v6.25zM386.66 232.42h10.17v-6.25h-1.62s.16-4.67-3.54-4.67-3.54 4.67-3.54 4.67h-1.46v6.25zM398.66 232.42h10.17v-6.25h-1.62s.16-4.67-3.54-4.67-3.54 4.67-3.54 4.67h-1.46v6.25zM410.66 232.42h10.17v-6.25h-1.62s.16-4.67-3.54-4.67-3.54 4.67-3.54 4.67h-1.46v6.25zM422.66 232.42h10.17v-6.25h-1.62s.16-4.67-3.54-4.67-3.54 4.67-3.54 4.67h-1.46v6.25zM434.66 232.42h10.17v-6.25h-1.62s.16-4.67-3.54-4.67-3.54 4.67-3.54 4.67h-1.46v6.25zM446.66 232.42h10.17v-6.25h-1.62s.16-4.67-3.54-4.67-3.54 4.67-3.54 4.67h-1.46v6.25zM458.66 232.42h10.17v-6.25h-1.62s.16-4.67-3.54-4.67-3.54 4.67-3.54 4.67h-1.46v6.25zM470.66 232.42h10.17v-6.25h-1.62s.16-4.67-3.54-4.67-3.54 4.67-3.54 4.67h-1.46v6.25z"></path>
          <path class="b" d="M599.78 210.9h171.31l5.83 5.93H602.9M776.92 216.83v30.5H603.76"></path>
          <path class="a" d="M776.92 219.67H604.39M773.01 247.33s.88-13.33-5.12-13.33M762.93 247.33s-.87-13.33 5.13-13.33M761.01 247.33s.88-13.33-5.12-13.33M750.93 247.33s-.87-13.33 5.13-13.33M749.01 247.33s.88-13.33-5.12-13.33M738.93 247.33s-.87-13.33 5.13-13.33M737.01 247.33s.88-13.33-5.12-13.33M726.93 247.33s-.87-13.33 5.13-13.33M725.01 247.33s.88-13.33-5.12-13.33M714.93 247.33s-.87-13.33 5.13-13.33M713.01 247.33s.88-13.33-5.12-13.33M702.93 247.33s-.87-13.33 5.13-13.33M701.01 247.33s.88-13.33-5.12-13.33M690.93 247.33s-.87-13.33 5.13-13.33M689.01 247.33s.88-13.33-5.12-13.33M678.93 247.33s-.87-13.33 5.13-13.33M677.01 247.33s.88-13.33-5.12-13.33M666.93 247.33s-.87-13.33 5.13-13.33M665.01 247.33s.88-13.33-5.12-13.33M654.93 247.33s-.87-13.33 5.13-13.33M653.01 247.33s.88-13.33-5.12-13.33M642.93 247.33s-.87-13.33 5.13-13.33M641.01 247.33s.88-13.33-5.12-13.33M630.93 247.33s-.87-13.33 5.13-13.33M629.01 247.33s.88-13.33-5.12-13.33M618.93 247.33s-.87-13.33 5.13-13.33M617.01 247.33s.88-13.33-5.12-13.33M606.93 247.33s-.87-13.33 5.13-13.33M773.06 232.42h-10.17v-6.25h1.63s-.16-4.67 3.54-4.67 3.54 4.67 3.54 4.67h1.46v6.25zM761.06 232.42h-10.17v-6.25h1.63s-.16-4.67 3.54-4.67 3.54 4.67 3.54 4.67h1.46v6.25zM749.06 232.42h-10.17v-6.25h1.63s-.16-4.67 3.54-4.67 3.54 4.67 3.54 4.67h1.46v6.25zM737.06 232.42h-10.17v-6.25h1.63s-.16-4.67 3.54-4.67 3.54 4.67 3.54 4.67h1.46v6.25zM725.06 232.42h-10.17v-6.25h1.63s-.16-4.67 3.54-4.67 3.54 4.67 3.54 4.67h1.46v6.25zM713.06 232.42h-10.17v-6.25h1.63s-.16-4.67 3.54-4.67 3.54 4.67 3.54 4.67h1.46v6.25zM701.06 232.42h-10.17v-6.25h1.63s-.16-4.67 3.54-4.67 3.54 4.67 3.54 4.67h1.46v6.25zM689.06 232.42h-10.17v-6.25h1.63s-.16-4.67 3.54-4.67 3.54 4.67 3.54 4.67h1.46v6.25zM677.06 232.42h-10.17v-6.25h1.63s-.16-4.67 3.54-4.67 3.54 4.67 3.54 4.67h1.46v6.25zM665.06 232.42h-10.17v-6.25h1.63s-.16-4.67 3.54-4.67 3.54 4.67 3.54 4.67h1.46v6.25zM653.06 232.42h-10.17v-6.25h1.63s-.16-4.67 3.54-4.67 3.54 4.67 3.54 4.67h1.46v6.25zM641.06 232.42h-10.17v-6.25h1.63s-.16-4.67 3.54-4.67 3.54 4.67 3.54 4.67h1.46v6.25zM629.06 232.42h-10.17v-6.25h1.63s-.16-4.67 3.54-4.67 3.54 4.67 3.54 4.67h1.46v6.25zM617.06 232.42h-10.17v-6.25h1.63s-.16-4.67 3.54-4.67 3.54 4.67 3.54 4.67h1.46v6.25z"></path>
          <path class="b" d="M843.88 99.5v131.4"></path>
          <path class="a" d="M848.32 102h3.38v3.38h-3.38zM848.32 108h3.38v3.38h-3.38zM848.32 114h3.38v3.38h-3.38zM848.32 120h3.38v3.38h-3.38zM848.32 126h3.38v3.38h-3.38zM848.32 132h3.38v3.38h-3.38zM848.32 138h3.38v3.38h-3.38zM848.32 144h3.38v3.38h-3.38zM848.32 150h3.38v3.38h-3.38zM848.32 156h3.38v3.38h-3.38zM848.32 162h3.38v3.38h-3.38zM848.32 168h3.38v3.38h-3.38zM848.32 180h3.38v3.38h-3.38zM848.32 186h3.38v3.38h-3.38zM848.32 192h3.38v3.38h-3.38zM848.32 198h3.38v3.38h-3.38zM848.32 204h3.38v3.38h-3.38zM848.32 210h3.38v3.38h-3.38zM848.32 216h3.38v3.38h-3.38zM848.32 222h3.38v3.38h-3.38z"></path>
          <path class="b" d="M856.05 230.9V99.5h-12.17V95h-29.83v4.5h-12.17v131.4M814.05 99.5v131.4"></path>
          <path class="a" d="M809.61 105.38h-3.38V102h3.38zM809.61 111.38h-3.38V108h3.38zM809.61 117.38h-3.38V114h3.38zM809.61 123.38h-3.38V120h3.38zM809.61 129.38h-3.38V126h3.38zM809.61 135.38h-3.38V132h3.38zM809.61 141.38h-3.38V138h3.38zM809.61 147.38h-3.38V144h3.38zM809.61 153.38h-3.38v-3.37h3.38zM809.61 159.38h-3.38V156h3.38zM809.61 165.38h-3.38V162h3.38zM809.61 171.38h-3.38V168h3.38zM809.61 177.38h-3.38V174h3.38zM809.61 183.38h-3.38V180h3.38zM809.61 189.38h-3.38V186h3.38zM809.61 195.38h-3.38V192h3.38zM809.61 201.38h-3.38V198h3.38zM809.61 207.38h-3.38V204h3.38zM809.61 213.38h-3.38V210h3.38zM809.61 219.38h-3.38V216h3.38zM809.61 225.38h-3.38V222h3.38zM823.67 141.38h-5.5V138h5.5zM831.67 141.38h-5.5V138h5.5zM839.67 141.38h-5.5V138h5.5zM823.67 148.38h-5.5V145h5.5zM831.67 148.38h-5.5V145h5.5zM839.67 148.38h-5.5V145h5.5zM823.67 155.38h-5.5v-3.37h5.5zM831.67 155.38h-5.5v-3.37h5.5zM839.67 155.38h-5.5v-3.37h5.5zM823.67 162.38h-5.5V159h5.5zM831.67 162.38h-5.5V159h5.5zM839.67 162.38h-5.5V159h5.5zM823.67 169.38h-5.5V166h5.5zM831.67 169.38h-5.5V166h5.5zM839.67 169.38h-5.5V166h5.5zM823.67 176.38h-5.5V173h5.5zM831.67 176.38h-5.5V173h5.5zM839.67 176.38h-5.5V173h5.5zM823.67 183.38h-5.5V180h5.5zM831.67 183.38h-5.5V180h5.5zM839.67 183.38h-5.5V180h5.5zM823.67 190.38h-5.5V187h5.5zM831.67 190.38h-5.5V187h5.5zM839.67 190.38h-5.5V187h5.5zM823.67 197.38h-5.5V194h5.5zM831.67 197.38h-5.5V194h5.5zM839.67 197.38h-5.5V194h5.5zM823.67 204.38h-5.5V201h5.5zM831.67 204.38h-5.5V201h5.5zM839.67 204.38h-5.5V201h5.5zM823.67 211.38h-5.5V208h5.5zM831.67 211.38h-5.5V208h5.5zM839.67 211.38h-5.5V208h5.5zM823.67 218.38h-5.5V215h5.5zM831.67 218.38h-5.5V215h5.5zM839.67 218.38h-5.5V215h5.5zM823.67 225.38h-5.5V222h5.5zM831.67 225.38h-5.5V222h5.5zM839.67 225.38h-5.5V222h5.5zM818.7 99.5h9v5.87h-9zM830.7 99.5h9v5.87h-9zM818.7 108.5h9v5.87h-9zM830.7 108.5h9v5.87h-9zM818.7 117.5h9v5.87h-9zM830.7 117.5h9v5.87h-9zM818.7 126.5h9v5.87h-9zM830.7 126.5h9v5.87h-9zM820.92 95l3.78-26.25V95M836.7 95l-3.78-26.25V95"></path>
          <path class="b" d="M242.62 230.9V118.5h5.16l-.11-.39-2.47-8.94h7.92V96.83h14.33v12.34h7.92l-2.59 9.33h5.17v107.13"></path>
          <path class="b" d="M257.95 225.63V118.5h-10.17v107.13"></path>
          <path class="a" d="M249.61 123h6M249.61 128h6M249.61 133h6M249.61 138h6M249.61 143h6M249.61 148h6M249.61 153h6M249.61 158h6M249.61 163h6M249.61 168h6M249.61 173h6M249.61 178h6M249.61 183h6M249.61 188h6M249.61 193h6M249.61 198h6M249.61 203h6M249.61 208h6M249.61 213h6M250.61 111.75h4.67v4.67h-4.67z"></path>
          <path class="b" d="M262.62 225.63V118.5h10.16v107.13"></path>
          <path class="a" d="M270.95 123h-6M270.95 128h-6M270.95 133h-6M270.95 138h-6M270.95 143h-6M270.95 148h-6M270.95 153h-6M270.95 158h-6M270.95 163h-6M270.95 168h-6M270.95 173h-6M270.95 178h-6M270.95 183h-6M270.95 188h-6M270.95 193h-6M270.95 198h-6M270.95 203h-6M270.95 208h-6M270.95 213h-6M269.95 116.42h-4.67v-4.67h4.67z"></path>
          <path class="b" d="M253.11 109.17h14.34M257.95 118.5h4.66"></path>
          <path class="a" d="M255.28 101v5.5M259.28 101v5.5M261.28 101v5.5M265.28 101v5.5"></path>
          <path class="b" d="M908.27 220.9L930.45 3.33M949.44 189.69V58.75H936.1M924.8 58.75h-13.34v130.94M952.62 220.9L930.45 3.33"></path>
          <path class="a" d="M926.92 64.75h7.03M926.07 71.88h8.88M924.95 79.88h10.87M923.82 87.63h13.13M922.95 95.38h15.25M921.95 103.13h17M921.2 111.17h18.37M920.32 118.75h20M919.46 126.75h21.98M918.95 134.63h23M918.07 142.25h24.5M917.45 150.13h26M916.7 157.69h27.5M915.57 165.69h29.25M914.82 173.38h30.75M913.95 181h32.62M912.88 189.69h34.69M912.2 196.63h36M911.45 204.38h37.5M911.05 212h38.39"></path>
          <path class="b" d="M576.4 205.69v-60h27.36v65.21"></path>
          <path class="a" d="M603.76 153.27H576.4M603.76 160.49H576.4M603.76 167.72H576.4M603.76 174.94H576.4M603.76 182.16H576.4M603.76 189.39H576.4M603.76 196.61H576.4M603.76 203.83H576.4M580.88 153.27v7.22M588.25 153.27v7.22M588.11 167.72v7.22M595.48 167.72v7.22M591.72 182.16v7.23M599.09 182.16v7.23M584.49 196.61v7.22M591.87 196.61v7.22"></path>
          <path class="b" d="M161.24 230.9V176l-17.04-17.67L126.28 176v54.9"></path>
          <path class="a" d="M161.24 176h-34.96M158.07 176l-14.26-14.26-14.34 14.35M131.44 174.12h24.75"></path>
          <path class="a" d="M140.51 167.56h7.12v4.88h-7.12zM133.11 181.75h5.17v11.17h-5.17zM133.11 187.33h5.17M143.11 181.75h15.17v11.17h-15.17zM146.53 181.75v11.17M154.53 181.75v11.17M143.11 198.75h15.17v11.17h-15.17zM146.53 198.75v11.17M154.53 198.75v11.17M143.11 215.75h15.17v11.17h-15.17zM146.53 215.75v11.17M154.53 215.75v11.17M139.2 230.9v-26.57s.54-4.44-4.44-4.44"></path>
          <path class="a" d="M130.78 230.9v-26.57s-.54-4.44 4.44-4.44M130.76 228.63h8.45M130.76 226.63h8.45M130.76 224.63h8.45M130.76 222.63h8.45M130.76 220.63h8.45M130.76 218.63h8.45M130.76 216.63h8.45M130.76 214.63h8.45M137.38 209.13v1.5M151 165.38v-3.94h-1.87v1.97M144.2 158.33v-3.58"></path>
          <path class="b" d="M121.42 230.83v-64.89l-3.48-3.61-6.36-6.59-10.3-10.68-21.18 20.88v64.89"></path>
          <path class="a" d="M80.1 165.94H121.42M83.87 166.04l.1-.1 2.23-2.23 14.63-14.62 10.75 10.75 3.87 3.87 2.23 2.23M86.2 163.71h29.25"></path>
          <path class="a" d="M96.92 155.97h8.42v5.76h-8.42zM88.18 172.74h6.11v13.2h-6.11zM88.18 179.33h6.1M99.99 172.74h17.93v13.2H99.99zM104.03 172.74v13.19M113.49 172.74v13.19M95.37 230.83v-31.4s.64-5.25-5.25-5.25"></path>
          <path class="a" d="M85.45 230.83v-31.4s-.64-5.25 5.25-5.25M85.39 228.14h10M85.39 225.77h10M85.39 223.41h10M85.39 221.04h10M85.39 218.68h10M85.39 216.32h10M85.39 213.95h10M85.39 211.59h10M109.31 153.39v-4.66h-2.2v2.33M101.28 145.06v-4.23M100.18 192.74h6.11v13.2h-6.11zM100.18 199.33h6.1M112.18 192.74h6.11v13.2h-6.11zM112.18 199.33h6.1"></path>
          <circle class="a" cx="90.2" cy="201.8" r="3.47"></circle>
          <path class="a" d="M100.18 212.74h6.11v13.2h-6.11zM100.18 219.33h6.1M112.18 212.74h6.11v13.2h-6.11zM112.18 219.33h6.1"></path>
          <path class="b" d="M192.42 230.83v-64.89l-6.78-7.03-5.32-5.52-8.04-8.33-21.18 20.88"></path>
          <path class="a" d="M151.1 165.94h41.32M154.87 166.04l.1-.1 2.23-2.23 14.63-14.62 14.62 14.62 2.23 2.23M157.2 163.71h29.25"></path>
          <path class="a" d="M167.92 155.97h8.42v5.76h-8.42zM170.99 172.74h17.93v13.2h-17.93zM175.03 172.74v13.19M184.49 172.74v13.19M180.31 153.39v-4.66h-2.2v2.33M171.18 192.74h6.11v13.2h-6.11zM171.18 199.33h6.1M183.18 192.74h6.11v13.2h-6.11zM183.18 199.33h6.1M171.18 212.74h6.11v13.2h-6.11zM171.18 219.33h6.1M183.18 212.74h6.11v13.2h-6.11zM183.18 219.33h6.1"></path>
          <path class="b" d="M237.24 230.9V176l-17.04-17.67-15.76 15.54-1.76 1.74-.4.39v54.9"></path>
          <path class="a" d="M237.24 176h-34.96M205.47 176.09l7.84-7.84 6.36-6.36.15-.15L234.07 176M207.44 174.12h24.75"></path>
          <path class="a" d="M216.51 167.56h7.13v4.88h-7.13zM209.11 181.75h5.17v11.17h-5.17zM209.11 187.33h5.17M219.11 181.75h15.17v11.17h-15.17zM222.53 181.75v11.17M230.53 181.75v11.17M219.11 198.75h15.17v11.17h-15.17zM222.53 198.75v11.17M230.53 198.75v11.17M219.11 215.75h15.17v11.17h-15.17zM222.53 215.75v11.17M230.53 215.75v11.17M215.2 230.9v-26.57s.54-4.44-4.44-4.44"></path>
          <path class="a" d="M206.78 230.9v-26.57s-.54-4.44 4.44-4.44M206.76 228.63h8.45M206.76 226.63h8.45M206.76 224.63h8.45M206.76 222.63h8.45M206.76 220.63h8.45M206.76 218.63h8.45M206.76 216.63h8.45M206.76 214.63h8.45M213.38 209.13v1.5M227 165.38v-3.94h-1.87v1.97"></path>
          <path class="b" d="M117.94 73.15v89.18l-6.36-6.59V73.15h6.36zM117.94 74.67a47.69 47.69 0 0 0 47.68 47.68 47.68 47.68 0 0 0 47.69-47.69"></path>
          <path class="a" d="M116.77 73.14v-2.31h-4.11v2.31"></path>
          <path class="b" d="M213.31 149.91h-32.99M117.94 149.91h49.42M178.12 149.91h-1.16M117.93 143.56H213.31"></path>
          <path class="a" d="M124.87 143.56V99.45M131.81 143.56v-35.27M138.74 143.56v-29.51M145.68 143.56v-25.58M152.61 143.56v-23.03M159.55 143.56v-21.61M166.49 143.56v-21.22M173.42 143.56v-21.87M180.36 143.56v-23.55M187.3 143.56v-26.43M194.23 143.56v-30.73M201.17 143.56v-37.11M208.11 143.56V96.32"></path>
          <path class="b" d="M213.31 165.12V73.15h6.36v85.7"></path>
          <path class="a" d="M219.67 161.89l-6.36 6.36M219.67 167.56h-3.16v3.27M549.89 76.25l-.05.09M542.9 86.45v.05"></path>
          <path class="b" d="M247.67 118.11l-.22-.11a47.69 47.69 0 0 1-27.74-43.32"></path>
          <path class="a" d="M218.5 73.14v-2.31h-4.11v2.31"></path>
          <path class="b" d="M219.67 149.91h22.95M219.67 143.56h22.95"></path>
          <path class="a" d="M226.6 143.56V99.45M233.53 143.56v-35.27M240.47 143.56v-29.51M247.41 117.99v-.01M261.28 121.97v-.02M542.9 86.5v-.05M549.84 76.34v-.02M78.64 120.03v-.02"></path>
          <path class="b" d="M586.61 145.69v-38h-25.66"></path>
          <path class="a" d="M572.67 121.38h-5.5V118h5.5zM583.67 121.38h-5.5V118h5.5zM572.67 115.38h-5.5V112h5.5zM583.67 115.38h-5.5V112h5.5zM572.67 137.38h-5.5V134h5.5zM583.67 137.38h-5.5V134h5.5zM572.67 131.38h-5.5V128h5.5zM583.67 131.38h-5.5V128h5.5zM572.67 155.38h-5.5v-3.37h5.5zM572.67 149.38h-5.5V146h5.5zM572.67 171.38h-5.5V168h5.5zM572.67 165.38h-5.5V162h5.5zM572.67 187.38h-5.5V184h5.5zM572.67 181.38h-5.5V178h5.5zM572.67 203.38h-5.5V200h5.5zM572.67 197.38h-5.5V194h5.5zM911.45 61.5h13.07M936.37 61.5h13.07"></path>
          <path class="b" d="M968.47 220.38V181h-19.03M959.05 181v-28.05h-9.61"></path>
          <path class="a" d="M956.82 155.38h-4.87M956.82 158.38h-4.87M956.82 161.38h-4.87M956.82 164.38h-4.87M956.82 169.38h-4.87M956.82 172.38h-4.87M956.82 175.38h-4.87M956.82 178.38h-4.87M965.97 181v-2.62h-3.65V181M958.95 220.9v-13.21h-7.68M962.32 184.75h3.56v13.13h-3.56zM962.32 201.75h3.56v13.13h-3.56zM955.32 184.75h3.56v13.13h-3.56zM581.82 107.69V105h-20.87M507.7 222.75l7.12-16.82M580.92 222.75l-7.14-17.37M544.45 222.75v-17.37M514.93 237.83h9.22s1-10-4.61-10-4.61 10-4.61 10zM539.76 237.83h9.22s1-10-4.61-10-4.61 10-4.61 10zM563.76 237.83h9.22s1-10-4.61-10-4.61 10-4.61 10zM915.32 64h3.38v3.38h-3.38zM915.32 70h3.38v3.38h-3.38zM942.32 64h3.38v3.38h-3.38zM942.32 70h3.38v3.38h-3.38zM915.32 76h3.38v3.38h-3.38zM915.32 82h3.38v3.38h-3.38zM942.32 76h3.38v3.38h-3.38zM942.32 82h3.38v3.38h-3.38zM310.78 247.33H.39M776.92 247.33h324.79M483.95 253.25L.4 253.67"></path>
          <path class="a" d="M1101.71 140.22v113.45l-497.76-.42"></path>
          <path class="b" d="M1031.95 231.33H776.93M978.78 231.33V220.9h-99.33v10.43M310.78 231.33H68.45V238H.4"></path>
          <path class="a" d="M249.61 218h6M249.61 223h6M270.95 218h-6M270.95 223h-6M242.62 225.63h40.45v5.7"></path>
          <path class="b" d="M45.28 123.4v-.01"></path>
          <path class="a" d="M58.7 171.68a8.8 8.8 0 0 0 .17-1.72 8.67 8.67 0 0 0-.23-2 8.78 8.78 0 0 0-8.56-6.8 6 6 0 0 0-.85.05 7.23 7.23 0 0 0-2.15-4.32 7.33 7.33 0 0 0-5.21-2.15 7.41 7.41 0 0 0-3.29.77 7.48 7.48 0 0 0-3.27 3.15M25.26 207.1a8.44 8.44 0 0 0 1-4 8.47 8.47 0 0 0-5.65-8 13.7 13.7 0 0 0 .45-3.47A13.64 13.64 0 0 0 7.45 178a13.51 13.51 0 0 0-7 1.95M63.87 202.13V202a8.71 8.71 0 0 0-8.71-8.71 8.7 8.7 0 0 0-8.62 7.5M41.87 232.13V232a8.71 8.71 0 0 0-8.71-8.71 8.7 8.7 0 0 0-8.62 7.5M38.58 155.53v-.01"></path>
          <path class="b" d="M.45 102.28a3.86 3.86 0 0 1 .49-.06 8.49 8.49 0 0 1 .88-.05 8.47 8.47 0 0 1 8.08 5.94 8.11 8.11 0 0 1 .28 1.13c.6-.05 1.21-.07 1.83-.07a24.79 24.79 0 0 1 4.25.36 24.79 24.79 0 0 1 6.93 2.3 24.59 24.59 0 0 1 4.88 3.23c.7.05 1.38.13 2.06.24a26 26 0 0 1 6.93 2.09 25.88 25.88 0 0 1 6.94 4.67c.46.43.9.87 1.33 1.33a25.49 25.49 0 0 1 3.81 5.29c.61.3 1.21.62 1.8 1a27 27 0 0 1 2.48 1.61 7.27 7.27 0 0 1 2.69-.5 7.25 7.25 0 0 1 1.76.21 7.62 7.62 0 0 1 5.82 6.61c.39.33.76.68 1.12 1.05a16.94 16.94 0 0 1 3.22 4.65 18.27 18.27 0 0 1 1.72 6.35c0 .56.08 1.13.08 1.7v.89a8.79 8.79 0 0 1 6.79 8.56v.94a28.74 28.74 0 0 1 3.83 4M207.76 170.6q0-.32-.12-.63a8.78 8.78 0 0 0-8.56-6.8 6 6 0 0 0-.85.05 7.23 7.23 0 0 0-2.15-4.32 7.33 7.33 0 0 0-5.21-2.15 7.41 7.41 0 0 0-3.29.77 7.37 7.37 0 0 0-1.94 1.38M187.58 157.53v-.01M121.45 170.56a6.85 6.85 0 0 1 5.19-2.36 6.89 6.89 0 0 1 5.19 2.36M232.9 171.5a6.9 6.9 0 0 1 9.72-4.61"></path>
          <path class="a" d="M192.45 194.42a8.47 8.47 0 0 1 4.89 7.68 1.77 1.77 0 0 1 0 .23M9.85 74.39a47.45 47.45 0 0 1-9 27.83l-.49.66"></path>
          <path class="a" d="M16.21 72.87v36.66a24.79 24.79 0 0 0-4.25-.36c-.62 0-1.23 0-1.83.07a8.11 8.11 0 0 0-.28-1.13V72.87h6.36z"></path>
          <path class="a" d="M16.2 74.39a47.69 47.69 0 0 0 47.69 47.69 47.68 47.68 0 0 0 47.69-47.69M15.04 72.87v-2.31h-4.11v2.31M96.63 149.64H69.7M111.58 149.64h-2.26M111.58 143.29h-43.6M23.14 111.83V99.17M30.08 115.3v-7.28M37.01 113.77V117.39M43.95 122.06v-4.35M50.89 120.26v9.4M57.82 121.68V130.98M64.76 138.64V122.06M71.69 143.29v-21.87M78.63 143.29v-23.55M85.56 143.29v-26.43M92.5 143.29v-30.73M99.44 143.29v-37.11M106.37 143.29V96.05M11.45 132.89a6.93 6.93 0 0 1 3-.69 6.9 6.9 0 0 1 6.71 5.3"></path>
          <path class="b" d="M334.45 210.9v-51.4h81.5v51.4"></path>
          <path class="b" d="M415.65 179.34h62.8v31.29M478.45 179.34V159.5h45.38M425.24 179.34V69.88h43.58v109.46M406.24 158.97V82.75l-45.42-.37v77.74M495.11 159.5v-56.12h-26.29M425.24 124.6h-19M277.95 127.69h27.5v71.06h-27.5M305.45 198.75h29M305.45 136.33h55.37M686.47 210.62v-39.29h-82.71M686.47 184.75h72v26.15M758.47 197.17h43.41"></path>
          <path class="b" d="M732.05 184.75v-49.37h48.12v61.79M660.89 164.32v-28.94h52.17v49.37M889.11 220.9v-61.52h21.94M889.11 176.38h-33.06M1101.71 225.38h-69.76v21.95M1052.95 225.38v-47h48.76M1052.95 196.61h-84.48M988.45 197v-28.65h43.5v28.32"></path>
          <path class="b" d="M1077.33 178.53v-38.31h24.38M68.45 238v9.33"></path>
          <path class="a" d="M78.76 247.33a7.59 7.59 0 0 1 7.58-7.58 7.58 7.58 0 0 1 7.58 7.58M108.76 247.33a7.59 7.59 0 0 1 7.58-7.58 7.58 7.58 0 0 1 7.58 7.58M138.76 247.33a7.59 7.59 0 0 1 7.58-7.58 7.58 7.58 0 0 1 7.58 7.58M168.76 247.33a7.58 7.58 0 1 1 15.16 0M198.76 247.33a7.58 7.58 0 1 1 15.16 0M228.76 247.33a7.58 7.58 0 1 1 15.16 0M258.76 247.33a7.58 7.58 0 0 1 15.16 0M288.76 247.33a7.58 7.58 0 0 1 15.16 0M789.29 247.33a7.58 7.58 0 0 1 15.16 0M819.29 247.33a7.58 7.58 0 0 1 15.16 0M849.29 247.33a7.58 7.58 0 0 1 15.16 0M879.29 247.33a7.58 7.58 0 0 1 15.16 0M909.29 247.33a7.58 7.58 0 0 1 15.16 0M939.29 247.33a7.58 7.58 0 0 1 15.16 0M969.29 247.33a7.58 7.58 0 0 1 15.16 0M999.29 247.33a7.58 7.58 0 0 1 15.16 0M758.47 135.69v-23.57h-74.59v22.51M848.32 174h3.38v3.38h-3.38zM316.28 136.33v-4.89h44.54M282.28 136.33v62.42M299.95 198.75v-62.42M310.78 141.83h18V148h-18zM336.78 141.83h18V148h-18zM310.78 171.83h18V178h-18zM310.78 184.83h18V191h-18zM305.45 153h54.66M319.78 171.83V178M319.78 184.83V191M305.45 155.88h54.66M334.45 168.5h81.2M334.45 178.5h81.2M334.45 188.5h81.2M334.45 198.5h81.2M334.45 208.5h81.2M345.78 198.5v10M354.78 198.75V208M365.78 188.5v10M374.78 188.75V198M385.78 168.5v10M394.78 168.75V178M395.78 178.5v10M404.78 178.75V188M355.78 159.5v9M364.78 158.75V168M389.78 198.5v10M398.78 198.75V208M370.61 159.5v-4.17h19.17v4.17M282.28 202.5h5.29v5.29h-5.29zM292.28 202.5h5.29v5.29h-5.29zM302.28 202.5h5.29v5.29h-5.29zM312.28 202.5h5.29v5.29h-5.29zM322.28 202.5h5.29v5.29h-5.29zM287.57 231.33v-7.83h23.21M287.57 225.63h23.21M282.28 212.5h5.29v5.29h-5.29zM292.28 212.5h5.29v5.29h-5.29zM302.28 212.5h5.29v5.29h-5.29zM296.95 128v-7.99M293.45 123v4.83M461.24 69.88v109.45M433.24 69.88v109.45M433.24 78.75h28M433.24 88.75h28M433.24 98.75h28M433.24 108.75h28M433.24 118.75h28M433.24 128.75h28M433.24 138.75h28M433.24 148.75h28M433.24 158.75h28M433.24 168.75h28M454.95 69.88v-3.21h-12.84l-3.6 3.6M408.82 129.69h13.83M408.82 135.69h13.83M408.82 141.69h13.83M408.82 147.69h13.83M408.82 153.69h13.83M360.82 94.5h45.42M360.82 98.5h45.42M360.82 109.5h45.42M360.82 113.5h45.42M360.82 124.5h45.42M360.82 128.5h45.42M360.82 139.5h45.42M360.82 143.5h45.42M399.78 94.5v4M389.78 94.5v4M379.78 94.5v4M369.78 94.5v4M396.78 109.5v4M386.78 109.5v4M376.78 109.5v4M366.78 109.5v4M396.78 139.5v4M386.78 139.5v4M376.78 139.5v4M366.78 139.5v4M399.78 124.5v4M389.78 124.5v4M379.78 124.5v4M369.78 124.5v4M399.78 82.7V71.67M394.78 82.66v-4.49M487.92 113.38h-19.1M487.92 123.38h-19.1M487.92 133.38h-19.1M487.92 143.38h-19.1M487.92 153.38h-19.1M478.45 173.38h-9.63M478.45 163.38h-9.63M68.45 234.67h242.33M1031.95 235.33H776.93M430.67 193.38h-5.5V190h5.5zM430.67 187.38h-5.5V184h5.5zM450.67 193.38h-5.5V190h5.5zM450.67 187.38h-5.5V184h5.5zM470.67 193.38h-5.5V190h5.5zM470.67 187.38h-5.5V184h5.5zM422.65 210.63v-8.94h49.3v9.21M422.65 205.63h49.3"></path>
          <path class="b" d="M523.95 168.75h-36.03v42.15H316.61l-5.83 5.93h174.03"></path>
          <path class="a" d="M523.83 176h-28.72v29.38M495.11 186h28.72M495.11 196h28.72M501.95 176v10M511.95 176v10M511.95 196v10M501.95 196v10M514.85 158.75V153M509.95 159.5v-2.62h-14.84M475.82 103.38l-.17-4.88M603.95 164.32h62.49l3.18 3.18 3.83 3.83M612.05 164.32v-4.25M686.98 179.69h-83.22M686.98 183.69h-83.22M603.76 189.69h83.21M603.76 193.69h83.21M603.76 199.69h83.21M603.76 203.69h83.21M610.28 179.69v4M615.28 179.69v4M625.28 179.69v4M630.28 179.69v4M640.28 179.69v4M645.28 179.69v4M655.28 179.69v4M660.28 183.69v-4M670.28 179.69v4M675.28 179.69v4M610.28 199.69v4M615.28 199.69v4M625.28 199.69v4M630.28 199.69v4M640.28 199.69v4M645.28 199.69v4M655.28 199.69v4M660.28 199.69v4M670.28 199.69v4M675.28 199.69v4M617.28 189.69v4M622.28 189.69v4M632.28 189.69v4M637.28 189.69v4M647.28 189.69v4M652.28 189.69v4M662.28 189.69v4M667.28 189.69v4M677.28 189.69v4M682.28 189.69v4M607.28 189.69v4M725.67 198.38h-5.5V195h5.5zM725.67 192.38h-5.5V189h5.5zM740.67 198.38h-5.5V195h5.5zM740.67 192.38h-5.5V189h5.5zM755.67 198.38h-5.5V195h5.5zM755.67 192.38h-5.5V189h5.5zM710.67 198.38h-5.5V195h5.5zM710.67 192.38h-5.5V189h5.5zM695.67 198.38h-5.5V195h5.5zM695.67 192.38h-5.5V189h5.5zM692.92 203.69v6.94M752.92 204v6.63M683.88 118.5h74.59M683.88 122.5h74.59M717.47 139.69v45.06M727.47 139.69v45.06M753.6 112.12l-4.72-4.72h-56.77l-4.51 4.51M741.95 107.4v-3.07M660.89 143.5h52.16M660.89 151.5h52.16M660.89 159.5h52.16M713.06 175.5h-26.59M713.06 167.5h-43.44M780.18 143.5h-47.9M780.18 151.5h-47.9M780.18 159.5h-47.9M780.18 167.5h-47.9M780.18 175.5h-47.9M780.18 192.5h-21.71M758.47 184.75h21.71M705.45 135.69v49.06M697.45 135.69v49.06M681.45 171.33v-35.64M689.45 135.69v49.06M665.45 164.32v-28.63M673.45 171.33v-35.64M740.45 135.69v49.06M748.45 135.69v49.06M756.45 135.69v49.06M764.45 135.69v61.48M772.45 135.69v62.22M683.88 127.5h74.59M683.88 131.5h74.59M691.34 118.5v13M701.34 118.5v13M711.34 118.5v13M721.34 118.5v13M731.34 118.5v13M741.34 118.5v13M751.34 118.5v13M795.78 202.69v28.21M764.45 202.69v7.94M787.45 197.17v-4.67h8.33v4.67M789.29 230.9v-17.52h-15.28M906.82 164.95h-12.75M906.82 169.95h-12.75M906.82 174.95h-12.75M906.82 179.95h-12.75M906.82 184.95h-12.75M906.82 189.95h-12.75M906.82 194.95h-12.75M906.82 199.95h-12.75M906.82 204.95h-12.75M906.82 209.95h-12.75M906.82 214.95h-12.75M856.05 184h33.06M856.05 188.14h33.06M856.05 197h33.06M856.05 201.14h33.06M856.05 210h33.06M856.05 214.14h33.06M879.45 223h-23.39M879.45 227.14h-23.39M861.61 184v4.14M866.11 184v4.14M871.61 184v4.14M876.11 184v4.14M881.61 184v4.14M886.11 184v4.14M859.61 197v4.14M864.11 197v4.14M869.61 197v4.14M874.11 197v4.14M879.61 197v4.14M884.11 197v4.14M861.61 210v4.14M866.11 210v4.14M871.61 210v4.14M876.11 210v4.14M881.61 210v4.14M886.11 210v4.14M859.61 223v4.14M864.11 223v4.14M869.61 223v4.14M874.11 223v4.14M1062.11 178.53v46.14M1072.11 178.53v46.14M1082.11 178.53v46.14M1092.11 178.53v46.14M1053.04 216.6h49.14M1053.04 206.6h49.14M1053.04 196.6h49.14M1053.04 186.6h49.14M1077.33 145.5h24.38M1077.33 149.5h24.38M1077.33 165.5h24.38M1077.33 169.5h24.38M1077.33 155.5h24.38M1077.33 159.5h24.38M1082.11 145.5v4M1088.11 165.5v4M1093.11 155.5v4M1095.11 140.22v-4.84M1000.32 180.75h3.56v13.13h-3.56zM992.32 180.75h3.56v13.13h-3.56zM1016.32 180.75h3.56v13.13h-3.56zM1008.32 180.75h3.56v13.13h-3.56zM1024.32 180.75h3.56v13.13h-3.56zM988.45 174.95h43.5M988.45 171.38h43.5M1026.1 168.35v-2.97h-26.81V168M1019.88 165.38v-4.69M1037.45 247.33v-16h64.26"></path>
          <path class="a" d="M1042.45 247.33l10.78-10.79h48.48"></path>
          <path class="a" d="M1051.45 247.33l5.79-5.79h44.47M1062.11 241.54v5.79M1072.11 241.54v5.79M1082.11 241.54v5.79M1092.11 241.54v5.79M973.78 201.88v19.02M1046.45 201.88v23.5M978.78 201.88h5.5v5.5h-5.5zM988.78 201.88h5.5v5.5h-5.5zM1006.78 201.88h5.5v5.5h-5.5zM1025.78 201.88h5.5v5.5h-5.5zM1035.78 201.88h5.5v5.5h-5.5zM978.78 211.88h5.5v5.5h-5.5zM988.78 211.88h5.5v5.5h-5.5zM1006.78 211.88h5.5v5.5h-5.5zM1025.78 211.88h5.5v5.5h-5.5zM1035.78 211.88h5.5v5.5h-5.5zM988.45 223v7.9M1025.78 223v7.9"></path>
          <path class="c" d="M720.7 69.6h-5.75M763.2 69.6h-5M779.2 69.6h-11.75M709.45 69.6h-22.3a4.89 4.89 0 0 1 3.87-7.91 4.92 4.92 0 0 1 1.39.2 7.33 7.33 0 0 1 12.78-3.37 6.7 6.7 0 0 1 6.46 1 11.58 11.58 0 0 1 11.38-9.42 11.44 11.44 0 0 1 6.23 1.83 19 19 0 0 1 37.06-3.1 11.49 11.49 0 0 1 18 11.83 5.62 5.62 0 0 1 1.54-.22 5.56 5.56 0 0 1 3.62 1.33 7.25 7.25 0 0 1 14.47.58 5.66 5.66 0 0 1-.08 1 4.6 4.6 0 0 1 .91-.09 5 5 0 0 1 5 5 4.85 4.85 0 0 1-.18 1.33h-24.9M615.55 114.71h-7.2a4.76 4.76 0 0 1-.48-2.1 4.87 4.87 0 0 1 4.86-4.86 4.81 4.81 0 0 1 1.53.25M614.26 108a8.75 8.75 0 0 1 8.56-6.93 7.08 7.08 0 0 1 1.13.08M623.95 101.15a12.62 12.62 0 0 1 24.57.27M648.52 101.42a8.92 8.92 0 0 1 13.6 6.72M662.12 108.14a4.91 4.91 0 0 1 1.92-.39 5 5 0 0 1 5 5.05 4.86 4.86 0 0 1-.38 1.91h-8.62M608.34 114.7h12.48M649.57 114.7l5.5.01M949.72 82.94a7.08 7.08 0 0 1 1.13.08M950.85 83a12.62 12.62 0 0 1 24.57.27M975.45 83.29a8.92 8.92 0 0 1 13.6 6.72"></path>
          <path class="c" d="M989.02 90a4.91 4.91 0 0 1 1.92-.39 5 5 0 0 1 5 5.05 4.86 4.86 0 0 1-.38 1.91h-8.62M976.47 96.58h5.5M1022.22 145.34h-8.47M1058.73 145.34h-5.64M1058.74 145.34a4.76 4.76 0 0 0-4.49-6.34 4.94 4.94 0 0 0-1.45.22M1019.54 139.21a4.57 4.57 0 0 0-1.29-.18 4.76 4.76 0 0 0-4.49 6.31M1019.54 139.21a17.08 17.08 0 0 1 33.26 0M1049.87 145.34h-9.06M314.32 103.39h-4.67M305.18 103.39h-18.11a4 4 0 0 1 3.15-6.43 3.86 3.86 0 0 1 1.13.17 5.95 5.95 0 0 1 10.38-2.74 5.44 5.44 0 0 1 5.24.81 9.42 9.42 0 0 1 9.25-7.65 9.27 9.27 0 0 1 5.06 1.49 15.43 15.43 0 0 1 30.1-2.52 9.23 9.23 0 0 1 5.51-1.81 9.37 9.37 0 0 1 3.93.86M164.45 97h-4.71a3.11 3.11 0 0 1-.31-1.37 3.18 3.18 0 0 1 3.18-3.18 3.14 3.14 0 0 1 1 .16M163.63 92.59a5.72 5.72 0 0 1 5.59-4.53 4.62 4.62 0 0 1 .74.05M169.96 88.12a8.25 8.25 0 0 1 16.06.18M186.01 88.29a5.83 5.83 0 0 1 8.89 4.39M194.9 92.69a3.21 3.21 0 0 1 1.25-.25 3.3 3.3 0 0 1 3.29 3.3 3.18 3.18 0 0 1-.25 1.25h-5.62M159.76 96.98h8.15M186.7 96.98h3.6M16.21 79.42h5.55M49.84 79.42H45.5M49.84 79.42a3.64 3.64 0 0 0 .2-1.2 3.66 3.66 0 0 0-3.65-3.65 3.8 3.8 0 0 0-1.12.17M16.21 75.54a3.64 3.64 0 0 1 2.47-1 3.66 3.66 0 0 1 1 .14M19.69 74.7a13.13 13.13 0 0 1 12.76-10.14 13.13 13.13 0 0 1 12.79 10.17M43.02 79.42h-6.97M870.36 130.22h-5.75M856.06 112.55a11.44 11.44 0 0 1 6.23-1.83 11.58 11.58 0 0 1 11.38 9.42 6.7 6.7 0 0 1 6.46-1 7.33 7.33 0 0 1 12.78 3.37 4.91 4.91 0 0 1 6.3 4.7 4.86 4.86 0 0 1-1 3h-22.3M801.89 129.44l-20.53-.11a4.89 4.89 0 0 1 3.87-7.91 4.92 4.92 0 0 1 1.39.2 7.33 7.33 0 0 1 12.78-3.37 6.7 6.7 0 0 1 2.34-.42"></path></svg>