<svg width="139" height="80" viewBox="0 0 139 80" fill="none" xmlns="http://www.w3.org/2000/svg">
<path d="M67.16 27.76V50H63.512V40.176H53.048V50H49.4V27.76H53.048V37.36H63.512V27.76H67.16ZM88.1225 40.688C88.1225 41.3067 88.0798 41.8827 87.9945 42.416H74.4905C74.5972 43.888 75.1198 45.0613 76.0585 45.936C76.9972 46.7893 78.1598 47.216 79.5465 47.216C81.5092 47.216 82.8958 46.3947 83.7065 44.752H87.6425C87.1092 46.3733 86.1385 47.7067 84.7305 48.752C83.3438 49.776 81.6158 50.288 79.5465 50.288C77.8612 50.288 76.3465 49.9147 75.0025 49.168C73.6798 48.4 72.6345 47.3333 71.8665 45.968C71.1198 44.5813 70.7465 42.9813 70.7465 41.168C70.7465 39.3547 71.1092 37.7653 71.8345 36.4C72.5812 35.0133 73.6158 33.9467 74.9385 33.2C76.2825 32.4533 77.8185 32.08 79.5465 32.08C81.2105 32.08 82.6932 32.4427 83.9945 33.168C85.2958 33.8933 86.3092 34.9067 87.0345 36.208C87.7598 37.5093 88.1225 39.0027 88.1225 40.688ZM84.3145 39.792C84.2932 38.3627 83.8132 37.232 82.8745 36.4C81.9572 35.568 80.7945 35.152 79.3865 35.152C78.1065 35.152 77.0078 35.568 76.0905 36.4C75.1945 37.232 74.6718 38.3627 74.5225 39.792H84.3145ZM95.3605 26.32V50H91.7125V26.32H95.3605ZM116.31 40.688C116.31 41.3067 116.267 41.8827 116.182 42.416H102.678C102.785 43.888 103.307 45.0613 104.246 45.936C105.185 46.7893 106.347 47.216 107.734 47.216C109.697 47.216 111.083 46.3947 111.894 44.752H115.83C115.297 46.3733 114.326 47.7067 112.918 48.752C111.531 49.776 109.803 50.288 107.734 50.288C106.049 50.288 104.534 49.9147 103.19 49.168C101.867 48.4 100.822 47.3333 100.054 45.968C99.3073 44.5813 98.934 42.9813 98.934 41.168C98.934 39.3547 99.2967 37.7653 100.022 36.4C100.769 35.0133 101.803 33.9467 103.126 33.2C104.47 32.4533 106.006 32.08 107.734 32.08C109.398 32.08 110.881 32.4427 112.182 33.168C113.483 33.8933 114.497 34.9067 115.222 36.208C115.947 37.5093 116.31 39.0027 116.31 40.688ZM112.502 39.792C112.481 38.3627 112.001 37.232 111.062 36.4C110.145 35.568 108.982 35.152 107.574 35.152C106.294 35.152 105.195 35.568 104.278 36.4C103.382 37.232 102.859 38.3627 102.71 39.792H112.502ZM128.796 32.08C130.183 32.08 131.42 32.368 132.508 32.944C133.617 33.52 134.481 34.3733 135.1 35.504C135.719 36.6347 136.028 38 136.028 39.6V50H132.412V40.144C132.412 38.5653 132.017 37.36 131.228 36.528C130.439 35.6747 129.361 35.248 127.996 35.248C126.631 35.248 125.543 35.6747 124.732 36.528C123.943 37.36 123.548 38.5653 123.548 40.144V50H119.9V32.368H123.548V34.384C124.145 33.6587 124.903 33.0933 125.82 32.688C126.759 32.2827 127.751 32.08 128.796 32.08Z" fill="#3585DD"/>
<path d="M16.7094 0.411783L0.709366 52.4118L75 0.411783L42.7094 0.411743L33.7094 79.4118L16.7094 0.411783Z" fill="url(#paint0_linear)"/>
<defs>
<linearGradient id="paint0_linear" x1="75" y1="42" x2="10" y2="84" gradientUnits="userSpaceOnUse">
<stop stop-color="#55A6FF"/>
<stop offset="1" stop-color="#0754A9"/>
</linearGradient>
</defs>
</svg>
