<svg xmlns="http://www.w3.org/2000/svg" width="1029" height="753" viewBox="0 0 1029 753" fill="none">
	<style>
		path.roll {
    animation:roll;
    content:'';
    animation-duration:3s;
    animation-iteration-count:infinite;
}
path.roll1 {
    animation:rolls;
    content:'';
     animation-direction:alternate;
    animation-duration:2s;
    animation-iteration-count:infinite;
}

@keyframes roll{
    from{
        opacity:.3;
       
    }
    to{
       opacity:1;
    }
}
@keyframes rolls{
    from{
        stroke:#2196F3;
        stroke-width:5px;
        transform:translate(10px)
       
    }
    to{
       opacity:1;
       transform:translate(-10px)
    }
}

g.move {
    animation:move;
    animation-duration:6s;
    animation-direction:alternate;
    animation-iteration-count:infinite;

}

@keyframes move{
    from{
        transform:translate(-90px);
    }
    to{
        transform:translate(90px);
    }
}
	</style>
<g clip-path="url(#clip0)">
<path opacity="0.5" d="M512.26 749.43C653.645 749.43 768.26 730.178 768.26 706.43C768.26 682.682 653.645 663.43 512.26 663.43C370.875 663.43 256.26 682.682 256.26 706.43C256.26 730.178 370.875 749.43 512.26 749.43Z" fill="#DEE3F3"/>
<g xmlns="http://www.w3.org/2000/svg" opacity="0.45" style="&#10;    transform: translate(-90px);&#10;" class="move">
<path opacity="0.45" d="M450.77 258.97C450.772 259.452 450.806 259.933 450.87 260.41C450.805 259.933 450.772 259.452 450.77 258.97V258.97Z" fill="#3585DD"/>
<path opacity="0.45" d="M579.69 228.08C579.69 228.21 579.69 228.33 579.75 228.46C579.73 228.33 579.71 228.21 579.69 228.08Z" fill="#3585DD"/>
<path opacity="0.45" d="M579.42 226.81C579.42 226.94 579.49 227.08 579.52 227.21C579.49 227.07 579.46 226.94 579.42 226.81Z" fill="#3585DD"/>
<path opacity="0.45" d="M579.55 261.38C579.55 261.6 579.44 261.82 579.38 262.03C579.45 261.82 579.5 261.6 579.55 261.38Z" fill="#3585DD"/>
<path opacity="0.45" d="M579.73 260.33C579.73 260.56 579.67 260.8 579.62 261.03C579.67 260.8 579.71 260.56 579.73 260.33Z" fill="#3585DD"/>
<path opacity="0.45" d="M456.73 268.78C455.871 268.329 455.074 267.768 454.36 267.11C455.074 267.768 455.87 268.329 456.73 268.78V268.78Z" fill="#3585DD"/>
<path opacity="0.45" d="M454.27 267.04C453.936 266.726 453.622 266.392 453.33 266.04C453.622 266.392 453.936 266.726 454.27 267.04V267.04Z" fill="#3585DD"/>
<path opacity="0.45" d="M644.52 478.43C644.39 477.991 644.233 477.56 644.05 477.14C644.233 477.56 644.39 477.991 644.52 478.43V478.43Z" fill="#3585DD"/>
<path opacity="0.45" d="M639.01 471.77C639.447 471.998 639.868 472.256 640.27 472.54C639.868 472.256 639.447 471.998 639.01 471.77Z" fill="#3585DD"/>
<path opacity="0.45" d="M641.49 473.53C642.167 474.167 642.762 474.886 643.26 475.67C642.762 474.885 642.167 474.167 641.49 473.53V473.53Z" fill="#3585DD"/>
<path opacity="0.45" d="M640.27 472.56C640.637 472.822 640.987 473.106 641.32 473.41C640.988 473.106 640.637 472.822 640.27 472.56Z" fill="#3585DD"/>
<path opacity="0.45" d="M643.95 476.95C643.784 476.607 643.601 476.274 643.4 475.95C643.601 476.274 643.784 476.607 643.95 476.95Z" fill="#3585DD"/>
<path opacity="0.45" d="M644.82 479.8C644.759 479.433 644.678 479.069 644.58 478.71C644.678 479.069 644.759 479.433 644.82 479.8Z" fill="#3585DD"/>
<path opacity="0.45" d="M978.47 419.14H914.82C916.289 418.122 917.489 416.763 918.318 415.18C919.147 413.597 919.58 411.837 919.58 410.05V380.83C919.58 379.376 919.294 377.937 918.737 376.594C918.181 375.251 917.366 374.03 916.338 373.002C915.31 371.974 914.089 371.159 912.746 370.603C911.403 370.046 909.964 369.76 908.51 369.76H835.27C837.507 369.046 839.46 367.639 840.846 365.742C842.232 363.846 842.979 361.559 842.98 359.21V329.98C842.98 328.193 842.547 326.433 841.718 324.85C840.889 323.266 839.689 321.908 838.22 320.89H908.54C911.476 320.89 914.292 319.724 916.368 317.648C918.444 315.572 919.61 312.756 919.61 309.82V280.59C919.61 277.654 918.444 274.838 916.368 272.762C914.292 270.686 911.476 269.52 908.54 269.52H830.27C832.507 268.806 834.46 267.399 835.846 265.502C837.232 263.606 837.979 261.319 837.98 258.97V229.74C837.98 227.953 837.547 226.193 836.718 224.61C835.889 223.026 834.689 221.668 833.22 220.65H908.55C911.486 220.65 914.302 219.484 916.378 217.408C918.454 215.332 919.62 212.516 919.62 209.58V180.35C919.623 178.89 919.337 177.445 918.778 176.096C918.22 174.747 917.401 173.522 916.367 172.492C915.334 171.461 914.106 170.645 912.756 170.09C911.406 169.535 909.96 169.253 908.5 169.26H869.07C871.307 168.546 873.26 167.139 874.646 165.242C876.032 163.346 876.779 161.059 876.78 158.71V129.51C876.78 126.574 875.614 123.758 873.538 121.682C871.462 119.606 868.646 118.44 865.71 118.44H758.8C755.864 118.44 753.048 119.606 750.972 121.682C748.896 123.758 747.73 126.574 747.73 129.51C747.73 126.574 746.564 123.758 744.488 121.682C742.412 119.606 739.596 118.44 736.66 118.44H629.74C627.636 118.448 625.579 119.055 623.807 120.19C622.036 121.325 620.626 122.942 619.74 124.85C619.88 125.561 619.951 126.285 619.95 127.01V156.26C619.96 157.864 619.618 159.451 618.95 160.91C619.447 163.433 620.809 165.703 622.8 167.33H650.26C652.814 167.329 655.289 168.216 657.26 169.84H669.26C667.023 170.554 665.07 171.961 663.684 173.857C662.298 175.754 661.551 178.041 661.55 180.39C661.526 179.673 661.432 178.959 661.27 178.26C661.27 178.26 661.27 178.34 661.27 178.38V207.6C661.267 208.531 661.146 209.459 660.91 210.36C661.089 210.547 661.25 210.752 661.39 210.97C661.449 210.509 661.479 210.045 661.48 209.58C661.488 210.221 661.551 210.86 661.67 211.49C661.818 211.843 661.902 212.218 661.92 212.6C662.62 215.062 664.149 217.207 666.25 218.67H656.73L656.97 218.48C656.09 218.48 655.19 218.41 654.31 218.4C653.994 218.396 653.682 218.332 653.39 218.21C652.359 218.521 651.287 218.679 650.21 218.68L584.6 220.68C583.131 221.698 581.931 223.056 581.102 224.64C580.273 226.223 579.84 227.983 579.84 229.77V258.99C579.841 261.339 580.589 263.626 581.974 265.522C583.36 267.419 585.313 268.826 587.55 269.54L650.21 270.06C651.312 270.061 652.407 270.226 653.46 270.55C654.159 270.61 654.852 270.73 655.53 270.91H655.69C655.081 270.577 654.441 270.302 653.78 270.09H669.2C666.963 270.804 665.01 272.211 663.624 274.107C662.238 276.004 661.491 278.291 661.49 280.64C661.489 279.996 661.432 279.354 661.32 278.72C661.248 278.826 661.168 278.926 661.08 279.02C661.219 279.725 661.289 280.442 661.29 281.16V310.38C661.29 311.74 661.49 311.38 661.49 309.86C661.49 311.647 661.923 313.407 662.752 314.99C663.581 316.573 664.781 317.932 666.25 318.95L705.34 320.2C706.68 320.202 708.009 320.45 709.26 320.93H718.67C716.986 322.106 715.66 323.726 714.84 325.61C715.867 327.319 716.409 329.276 716.41 331.27V360.46C716.411 361.985 716.094 363.494 715.48 364.89C716.864 367.204 719.043 368.935 721.61 369.76H711.33C709.545 370.922 707.46 371.54 705.33 371.54H666.54C664.984 372.542 663.704 373.918 662.818 375.543C661.932 377.168 661.469 378.989 661.47 380.84C661.47 376.94 660.02 415.4 660.02 415.4C660.02 418.85 720.36 420.4 720.36 420.4C721.893 420.4 723.408 420.72 724.81 421.34C725.441 421.207 726.086 421.153 726.73 421.18H726.67H736.19C734.721 422.198 733.521 423.556 732.692 425.14C731.863 426.723 731.43 428.483 731.43 430.27C731.428 429.741 731.388 429.213 731.31 428.69C731.26 428.81 731.2 428.93 731.14 429.04C731.33 429.853 731.427 430.685 731.43 431.52V459.52C731.43 462.456 732.596 465.272 734.672 467.348C736.748 469.424 739.564 470.59 742.5 470.59H725.5C723.923 471.414 722.169 471.843 720.39 471.84H650.95C649.146 472.769 647.632 474.177 646.574 475.909C645.515 477.641 644.954 479.63 644.95 481.66V510.88C644.95 512.334 645.236 513.773 645.793 515.116C646.349 516.459 647.164 517.68 648.192 518.708C649.22 519.736 650.441 520.551 651.784 521.107C653.127 521.664 654.566 521.95 656.02 521.95H762.96C764.414 521.95 765.853 521.664 767.196 521.107C768.539 520.551 769.76 519.736 770.788 518.708C771.816 517.68 772.631 516.459 773.187 515.116C773.744 513.773 774.03 512.334 774.03 510.88C774.03 512.334 774.316 513.773 774.873 515.116C775.429 516.459 776.244 517.68 777.272 518.708C778.3 519.736 779.521 520.551 780.864 521.107C782.207 521.664 783.646 521.95 785.1 521.95H892.01C893.464 521.95 894.903 521.664 896.246 521.107C897.589 520.551 898.81 519.736 899.838 518.708C900.866 517.68 901.681 516.459 902.237 515.116C902.794 513.773 903.08 512.334 903.08 510.88V481.59C903.08 478.654 901.914 475.838 899.838 473.762C897.762 471.686 894.946 470.52 892.01 470.52H978.46C979.914 470.52 981.353 470.234 982.696 469.677C984.039 469.121 985.26 468.306 986.288 467.278C987.316 466.25 988.131 465.029 988.687 463.686C989.244 462.343 989.53 460.904 989.53 459.45V430.26C989.537 428.803 989.256 427.359 988.703 426.011C988.15 424.662 987.337 423.437 986.309 422.403C985.281 421.37 984.06 420.55 982.715 419.99C981.37 419.43 979.927 419.141 978.47 419.14ZM713.64 220.65C712.171 221.668 710.971 223.026 710.142 224.61C709.313 226.193 708.88 227.953 708.88 229.74C708.88 227.953 708.447 226.193 707.618 224.61C706.789 223.026 705.589 221.668 704.12 220.65H713.64ZM701.17 269.52C703.407 268.806 705.36 267.399 706.746 265.502C708.132 263.606 708.879 261.319 708.88 258.97C708.881 261.319 709.628 263.606 711.014 265.502C712.4 267.399 714.353 268.806 716.59 269.52H701.17ZM740.01 169.26C742.247 168.546 744.2 167.139 745.586 165.242C746.972 163.346 747.719 161.059 747.72 158.71C747.721 161.059 748.469 163.346 749.854 165.242C751.24 167.139 753.193 168.546 755.43 169.26H740.01ZM774.01 481.57C774.01 480.116 773.724 478.677 773.167 477.334C772.611 475.991 771.796 474.77 770.768 473.742C769.74 472.714 768.519 471.899 767.176 471.343C765.833 470.786 764.394 470.5 762.94 470.5H785.09C783.635 470.501 782.195 470.789 780.852 471.347C779.509 471.906 778.289 472.723 777.262 473.753C776.235 474.783 775.42 476.005 774.866 477.35C774.311 478.695 774.027 480.135 774.03 481.59L774.01 481.57ZM785.74 419.12C787.209 418.102 788.409 416.743 789.238 415.16C790.067 413.577 790.5 411.817 790.5 410.03C790.5 411.817 790.933 413.577 791.762 415.16C792.591 416.743 793.791 418.102 795.26 419.12H785.74ZM790.5 380.8C790.499 378.457 789.755 376.174 788.375 374.28C786.995 372.387 785.05 370.979 782.82 370.26H798.27C796.022 370.968 794.058 372.375 792.664 374.276C791.271 376.177 790.52 378.473 790.52 380.83L790.5 380.8ZM785.74 318.88C787.209 317.862 788.409 316.503 789.238 314.92C790.067 313.337 790.5 311.577 790.5 309.79C790.5 311.577 790.933 313.337 791.762 314.92C792.591 316.503 793.791 317.862 795.26 318.88H785.74ZM790.5 280.56C790.499 278.211 789.752 275.924 788.366 274.027C786.98 272.131 785.027 270.724 782.79 270.01H798.27C796.02 270.719 794.055 272.127 792.662 274.03C791.268 275.933 790.517 278.231 790.52 280.59L790.5 280.56ZM785.74 218.64C787.209 217.622 788.409 216.263 789.238 214.68C790.067 213.097 790.5 211.337 790.5 209.55C790.5 211.337 790.933 213.097 791.762 214.68C792.591 216.263 793.791 217.622 795.26 218.64H785.74ZM790.5 180.32C790.499 177.971 789.752 175.684 788.366 173.787C786.98 171.891 785.027 170.484 782.79 169.77H798.27C796.02 170.479 794.055 171.887 792.662 173.79C791.268 175.693 790.517 177.991 790.52 180.35L790.5 180.32ZM865.27 421.12C863.801 422.138 862.601 423.496 861.772 425.08C860.943 426.663 860.51 428.423 860.51 430.21C860.51 428.423 860.077 426.663 859.248 425.08C858.419 423.496 857.219 422.138 855.75 421.12H865.27ZM849.43 470.51C850.884 470.51 852.323 470.224 853.666 469.667C855.009 469.111 856.23 468.296 857.258 467.268C858.286 466.24 859.101 465.019 859.657 463.676C860.214 462.333 860.5 460.894 860.5 459.44C860.5 460.894 860.786 462.333 861.343 463.676C861.899 465.019 862.714 466.24 863.742 467.268C864.77 468.296 865.991 469.111 867.334 469.667C868.677 470.224 870.116 470.51 871.57 470.51H849.43Z" fill="#3585DD"/>
<path opacity="0.45" d="M644.98 481.59C644.977 481.118 644.943 480.647 644.88 480.18C644.943 480.647 644.977 481.118 644.98 481.59V481.59Z" fill="#3585DD"/>
<path opacity="0.45" d="M579.83 258.97C579.83 259.32 579.83 259.67 579.78 259.97C579.81 259.66 579.83 259.32 579.83 258.97Z" fill="#3585DD"/>
<path opacity="0.45" d="M450.9 260.62C450.966 261.065 451.06 261.506 451.18 261.94C451.06 261.506 450.966 261.065 450.9 260.62Z" fill="#3585DD"/>
<path opacity="0.45" d="M326.97 325.91C326.787 325.747 326.629 325.559 326.5 325.35C326.342 325.065 326.237 324.753 326.19 324.43C326.151 325.19 326.151 325.951 326.19 326.71C326.524 327.768 326.696 328.871 326.7 329.98C326.706 328.898 326.871 327.823 327.19 326.79C327.091 326.541 327.014 326.283 326.96 326.02C326.96 326.02 326.97 325.95 326.97 325.91Z" fill="#3585DD"/>
<path opacity="0.45" d="M478.54 118.43H371.63C368.694 118.43 365.878 119.596 363.802 121.672C361.726 123.748 360.56 126.564 360.56 129.5C360.56 126.564 359.394 123.748 357.318 121.672C355.242 119.596 352.426 118.43 349.49 118.43H242.58C239.644 118.43 236.828 119.596 234.752 121.672C232.676 123.748 231.51 126.564 231.51 129.5V158.72C231.512 161.066 232.259 163.35 233.643 165.244C235.027 167.138 236.976 168.544 239.21 169.26H156.33C154.875 169.261 153.435 169.549 152.092 170.107C150.749 170.666 149.529 171.483 148.502 172.513C147.475 173.543 146.66 174.765 146.106 176.11C145.551 177.455 145.267 178.895 145.27 180.35V209.57C145.27 211.357 145.703 213.117 146.532 214.7C147.361 216.283 148.561 217.642 150.03 218.66H74.68C71.744 218.66 68.9283 219.826 66.8523 221.902C64.7763 223.978 63.61 226.794 63.61 229.73V258.95C63.61 261.886 64.7763 264.702 66.8523 266.778C68.9283 268.854 71.744 270.02 74.68 270.02H152.96C150.723 270.739 148.773 272.15 147.39 274.05C146.008 275.95 145.265 278.24 145.27 280.59V309.81C145.27 311.597 145.703 313.357 146.532 314.94C147.361 316.523 148.561 317.882 150.03 318.9H79.7C76.764 318.9 73.9483 320.066 71.8723 322.142C69.7963 324.218 68.63 327.034 68.63 329.97V359.19C68.63 362.126 69.7963 364.942 71.8723 367.018C73.9483 369.094 76.764 370.26 79.7 370.26H152.96C150.723 370.979 148.773 372.39 147.39 374.29C146.008 376.19 145.265 378.48 145.27 380.83V410.05C145.27 412.986 146.436 415.802 148.512 417.878C150.588 419.954 153.404 421.12 156.34 421.12H219.99C218.521 422.138 217.321 423.497 216.492 425.08C215.663 426.663 215.23 428.423 215.23 430.21V459.43C215.227 462.362 216.388 465.176 218.458 467.254C220.528 469.331 223.338 470.502 226.27 470.51H139.84C136.904 470.51 134.088 471.676 132.012 473.752C129.936 475.828 128.77 478.644 128.77 481.58V510.8C128.77 513.736 129.936 516.552 132.012 518.628C134.088 520.704 136.904 521.87 139.84 521.87H246.74C249.676 521.87 252.492 520.704 254.568 518.628C256.644 516.552 257.81 513.736 257.81 510.8C257.81 513.736 258.976 516.552 261.052 518.628C263.128 520.704 265.944 521.87 268.88 521.87H375.8C378.736 521.87 381.552 520.704 383.628 518.628C385.704 516.552 386.87 513.736 386.87 510.8V481.59C386.866 479.56 386.304 477.571 385.246 475.839C384.188 474.107 382.674 472.7 380.87 471.77H357.85C356.071 471.773 354.317 471.344 352.74 470.52H333.2C334.655 470.52 336.095 470.233 337.439 469.676C338.782 469.119 340.003 468.303 341.031 467.274C342.059 466.245 342.874 465.024 343.43 463.679C343.986 462.335 344.271 460.895 344.27 459.44C344.27 464.26 346.78 431.44 346.78 431.44C346.78 428.504 347.946 425.688 350.022 423.612C352.098 421.536 354.914 420.37 357.85 420.37L398.6 419.12C399.758 418.314 400.752 417.296 401.53 416.12C400.952 414.763 400.653 413.305 400.65 411.83V382.6C400.647 380.434 401.284 378.316 402.48 376.51C401.612 374.46 400.149 372.718 398.28 371.51H340.27C338.14 371.51 336.055 370.892 334.27 369.73H319.02C321.257 369.016 323.21 367.609 324.596 365.713C325.982 363.816 326.729 361.529 326.73 359.18L326.34 330.18C326.34 328.87 326.27 327.72 326.22 326.69C325.491 324.331 323.995 322.283 321.97 320.87H331.49L331.28 321.03C336.68 320.72 398.35 317.1 403.37 313.03C403.243 312.263 403.22 311.483 403.3 310.71C403.211 310.154 403.164 309.593 403.16 309.03V279.86C403.16 279.5 403.16 279.14 403.21 278.79C402.877 276.777 401.995 274.895 400.661 273.352C399.327 271.808 397.593 270.662 395.65 270.04H409.13C410.707 269.216 412.461 268.787 414.24 268.79H444.81C446.615 267.861 448.129 266.454 449.188 264.722C450.246 262.99 450.807 261 450.81 258.97V229.74C450.81 227.953 450.377 226.193 449.548 224.61C448.719 223.027 447.519 221.668 446.05 220.65L414.27 218.65C408.89 218.65 405.32 216.65 408.16 218.65H398.64C400.097 217.641 401.29 216.297 402.118 214.731C402.947 213.165 403.386 211.422 403.4 209.65C403.273 208.991 403.206 208.321 403.2 207.65V178.37C403.2 178.37 403.2 178.37 403.2 178.3C402.829 176.338 401.936 174.513 400.614 173.017C399.292 171.521 397.591 170.41 395.69 169.8H407.27C409.241 168.176 411.716 167.289 414.27 167.29H485.58C486.855 166.256 487.882 164.949 488.586 163.466C489.291 161.983 489.654 160.362 489.65 158.72V129.51C489.651 128.052 489.365 126.608 488.806 125.261C488.248 123.915 487.429 122.691 486.397 121.662C485.365 120.632 484.139 119.817 482.791 119.262C481.443 118.708 479.998 118.425 478.54 118.43V118.43ZM197.43 220.65C195.961 221.668 194.761 223.027 193.932 224.61C193.103 226.193 192.67 227.953 192.67 229.74C192.67 227.953 192.237 226.193 191.408 224.61C190.579 223.027 189.379 221.668 187.91 220.65H197.43ZM192.67 258.97C192.671 261.319 193.418 263.606 194.804 265.503C196.19 267.399 198.143 268.806 200.38 269.52H184.96C187.196 268.804 189.146 267.396 190.53 265.5C191.914 263.604 192.66 261.317 192.66 258.97H192.67ZM202.44 320.89C200.971 321.908 199.771 323.267 198.942 324.85C198.113 326.433 197.68 328.193 197.68 329.98C197.68 328.193 197.247 326.433 196.418 324.85C195.589 323.267 194.389 321.908 192.92 320.89H202.44ZM189.97 369.75C192.207 369.036 194.16 367.629 195.546 365.733C196.932 363.836 197.679 361.549 197.68 359.2C197.681 361.549 198.428 363.836 199.814 365.733C201.2 367.629 203.153 369.036 205.39 369.75H189.97ZM326.48 220.65C325.011 221.668 323.811 223.027 322.982 224.61C322.153 226.193 321.72 227.953 321.72 229.74C321.72 227.953 321.287 226.193 320.458 224.61C319.629 223.027 318.429 221.668 316.96 220.65H326.48ZM257.82 481.59C257.82 478.654 256.654 475.838 254.578 473.762C252.502 471.686 249.686 470.52 246.75 470.52H268.9C267.445 470.519 266.005 470.804 264.661 471.36C263.316 471.916 262.095 472.731 261.066 473.759C260.037 474.787 259.221 476.008 258.664 477.351C258.107 478.695 257.82 480.135 257.82 481.59ZM269.55 419.14C271.019 418.122 272.219 416.763 273.048 415.18C273.877 413.597 274.31 411.837 274.31 410.05C274.31 411.837 274.743 413.597 275.572 415.18C276.401 416.763 277.601 418.122 279.07 419.14H269.55ZM274.27 380.83C274.276 378.483 273.536 376.195 272.158 374.295C270.779 372.395 268.833 370.982 266.6 370.26H282.02C279.772 370.968 277.808 372.375 276.414 374.276C275.021 376.177 274.27 378.473 274.27 380.83V380.83ZM269.51 318.91C270.979 317.892 272.179 316.533 273.008 314.95C273.837 313.367 274.27 311.607 274.27 309.82C274.27 311.607 274.703 313.367 275.532 314.95C276.361 316.533 277.561 317.892 279.03 318.91H269.51ZM274.27 280.59C274.269 278.241 273.522 275.954 272.136 274.057C270.75 272.161 268.797 270.754 266.56 270.04H281.98C279.743 270.754 277.79 272.161 276.404 274.057C275.018 275.954 274.271 278.241 274.27 280.59V280.59ZM269.51 218.67C270.979 217.652 272.179 216.293 273.008 214.71C273.837 213.127 274.27 211.367 274.27 209.58C274.27 211.367 274.703 213.127 275.532 214.71C276.361 216.293 277.561 217.652 279.03 218.67H269.51ZM274.27 180.35C274.269 178.001 273.522 175.714 272.136 173.817C270.75 171.921 268.797 170.514 266.56 169.8H281.98C279.743 170.514 277.79 171.921 276.404 173.817C275.018 175.714 274.271 178.001 274.27 180.35V180.35ZM313.97 269.51C316.207 268.796 318.16 267.389 319.546 265.493C320.932 263.596 321.679 261.309 321.68 258.96C321.681 261.309 322.428 263.596 323.814 265.493C325.2 267.389 327.153 268.796 329.39 269.51H313.97ZM352.85 169.26C355.087 168.546 357.04 167.139 358.426 165.243C359.812 163.346 360.559 161.059 360.56 158.71C360.561 161.059 361.308 163.346 362.694 165.243C364.08 167.139 366.033 168.546 368.27 169.26H352.85Z" fill="#3585DD"/>
<path opacity="0.45" d="M454.41 221.55L454.57 221.41L454.41 221.55Z" fill="#3585DD"/>
<path opacity="0.45" d="M453.68 222.26L453.52 222.44L453.68 222.26Z" fill="#3585DD"/>
<path opacity="0.45" d="M452.75 223.44L452.83 223.33L452.75 223.44Z" fill="#3585DD"/>
<path opacity="0.45" d="M451.27 262.16C451.397 262.592 451.551 263.017 451.73 263.43C451.551 263.017 451.397 262.592 451.27 262.16Z" fill="#3585DD"/>
<path opacity="0.45" d="M452.43 264.79C452.679 265.187 452.953 265.568 453.25 265.93C452.953 265.568 452.679 265.187 452.43 264.79Z" fill="#3585DD"/>
<path opacity="0.45" d="M451.77 263.54C451.963 263.967 452.184 264.381 452.43 264.78C452.184 264.381 451.963 263.967 451.77 263.54Z" fill="#3585DD"/>
<path opacity="0.45" d="M451.08 227.21C451.08 227.07 451.15 226.94 451.18 226.81C451.14 226.94 451.11 227.07 451.08 227.21Z" fill="#3585DD"/>
<path opacity="0.45" d="M451.45 225.96C451.45 225.85 451.53 225.74 451.57 225.63C451.53 225.74 451.49 225.85 451.45 225.96Z" fill="#3585DD"/>
<path opacity="0.45" d="M450.85 228.46C450.85 228.33 450.85 228.2 450.91 228.08C450.89 228.21 450.87 228.33 450.85 228.46Z" fill="#3585DD"/>
<path opacity="0.1" d="M241.6 169.81L352.97 169.81C357.852 169.81 361.81 165.852 361.81 160.97V127.28C361.81 122.398 357.852 118.44 352.97 118.44L241.6 118.44C236.718 118.44 232.76 122.398 232.76 127.28V160.97C232.76 165.852 236.718 169.81 241.6 169.81Z" fill="black"/>
<path opacity="0.1" d="M627.51 169.81L738.88 169.81C743.762 169.81 747.72 165.852 747.72 160.97V127.28C747.72 122.398 743.762 118.44 738.88 118.44L627.51 118.44C622.628 118.44 618.67 122.398 618.67 127.28V160.97C618.67 165.852 622.628 169.81 627.51 169.81Z" fill="black"/>
<path opacity="0.1" d="M799.17 219.93L910.54 219.93C915.422 219.93 919.38 215.972 919.38 211.09V177.4C919.38 172.518 915.422 168.56 910.54 168.56H799.17C794.288 168.56 790.33 172.518 790.33 177.4V211.09C790.33 215.972 794.288 219.93 799.17 219.93Z" fill="black"/>
<path opacity="0.1" d="M588.66 270.04H700.03C704.912 270.04 708.87 266.082 708.87 261.2V227.51C708.87 222.628 704.912 218.67 700.03 218.67H588.66C583.778 218.67 579.82 222.628 579.82 227.51V261.2C579.82 266.082 583.778 270.04 588.66 270.04Z" fill="black"/>
<path opacity="0.1" d="M799.17 321.41H910.54C915.422 321.41 919.38 317.452 919.38 312.57V278.88C919.38 273.998 915.422 270.04 910.54 270.04H799.17C794.288 270.04 790.33 273.998 790.33 278.88V312.57C790.33 317.452 794.288 321.41 799.17 321.41Z" fill="black"/>
<path opacity="0.1" d="M799.17 421.65H910.54C915.422 421.65 919.38 417.692 919.38 412.81V379.12C919.38 374.238 915.422 370.28 910.54 370.28H799.17C794.288 370.28 790.33 374.238 790.33 379.12V412.81C790.33 417.692 794.288 421.65 799.17 421.65Z" fill="black"/>
<path opacity="0.1" d="M852.43 420.4H739.5C737.756 420.399 736.059 420.964 734.663 422.01C733.268 423.056 732.249 424.526 731.76 426.2C731.79 426.655 731.76 427.113 731.67 427.56C731.612 427.822 731.535 428.079 731.44 428.33C731.44 428.33 731.44 428.42 731.44 428.46V463.71C731.44 465.848 732.289 467.898 733.801 469.409C735.312 470.921 737.362 471.77 739.5 471.77H852.43C854.568 471.77 856.618 470.921 858.129 469.409C859.641 467.898 860.49 465.848 860.49 463.71V428.46C860.49 426.322 859.641 424.272 858.129 422.761C856.618 421.249 854.568 420.4 852.43 420.4Z" fill="black"/>
<path opacity="0.1" d="M653.82 521.89H765.19C770.072 521.89 774.03 517.932 774.03 513.05V479.36C774.03 474.478 770.072 470.52 765.19 470.52H653.82C648.938 470.52 644.98 474.478 644.98 479.36V513.05C644.98 517.932 648.938 521.89 653.82 521.89Z" fill="black"/>
<path opacity="0.1" d="M282.94 219.93L394.31 219.93C399.192 219.93 403.15 215.972 403.15 211.09V177.4C403.15 172.518 399.192 168.56 394.31 168.56H282.94C278.058 168.56 274.1 172.518 274.1 177.4V211.09C274.1 215.972 278.058 219.93 282.94 219.93Z" fill="black"/>
<path opacity="0.1" d="M202.75 270.04H314.12C319.002 270.04 322.96 266.082 322.96 261.2V227.51C322.96 222.628 319.002 218.67 314.12 218.67H202.75C197.868 218.67 193.91 222.628 193.91 227.51V261.2C193.91 266.082 197.868 270.04 202.75 270.04Z" fill="black"/>
<path opacity="0.1" d="M153.89 321.41H265.26C270.142 321.41 274.1 317.452 274.1 312.57V278.88C274.1 273.998 270.142 270.04 265.26 270.04H153.89C149.008 270.04 145.05 273.998 145.05 278.88V312.57C145.05 317.452 149.008 321.41 153.89 321.41Z" fill="black"/>
<path opacity="0.1" d="M206.51 371.53H317.88C322.762 371.53 326.72 367.572 326.72 362.69V329C326.72 324.118 322.762 320.16 317.88 320.16H206.51C201.628 320.16 197.67 324.118 197.67 329V362.69C197.67 367.572 201.628 371.53 206.51 371.53Z" fill="black"/>
<path opacity="0.1" d="M153.89 421.65H265.26C270.142 421.65 274.1 417.692 274.1 412.81V379.12C274.1 374.238 270.142 370.28 265.26 370.28H153.89C149.008 370.28 145.05 374.238 145.05 379.12V412.81C145.05 417.692 149.008 421.65 153.89 421.65Z" fill="black"/>
<path opacity="0.45" d="M95.51 471.82H206.88C211.762 471.82 215.72 467.862 215.72 462.98V429.29C215.72 424.408 211.762 420.45 206.88 420.45H95.51C90.6278 420.45 86.67 424.408 86.67 429.29V462.98C86.67 467.862 90.6278 471.82 95.51 471.82Z" fill="#3585DD"/>
<path opacity="0.45" d="M849.02 371.48H960.39C965.272 371.48 969.23 367.522 969.23 362.64V328.95C969.23 324.068 965.272 320.11 960.39 320.11H849.02C844.138 320.11 840.18 324.068 840.18 328.95V362.64C840.18 367.522 844.138 371.48 849.02 371.48Z" fill="#3585DD"/>
<path opacity="0.45" d="M843.55 270.22H954.92C959.802 270.22 963.76 266.262 963.76 261.38V227.69C963.76 222.808 959.802 218.85 954.92 218.85H843.55C838.668 218.85 834.71 222.808 834.71 227.69V261.38C834.71 266.262 838.668 270.22 843.55 270.22Z" fill="#3585DD"/>
<path opacity="0.45" d="M908.32 521.09H1019.69C1024.57 521.09 1028.53 517.132 1028.53 512.25V478.56C1028.53 473.678 1024.57 469.72 1019.69 469.72H908.32C903.438 469.72 899.48 473.678 899.48 478.56V512.25C899.48 517.132 903.438 521.09 908.32 521.09Z" fill="#3585DD"/>
<path opacity="0.45" d="M8.85006 522H120.22C125.102 522 129.06 518.042 129.06 513.16V479.47C129.06 474.588 125.102 470.63 120.22 470.63H8.85006C3.96786 470.63 0.0100708 474.588 0.0100708 479.47V513.16C0.0100708 518.042 3.96786 522 8.85006 522Z" fill="#3585DD"/>
<path opacity="0.45" d="M26.17 420.73H137.54C142.422 420.73 146.38 416.772 146.38 411.89V378.2C146.38 373.318 142.422 369.36 137.54 369.36H26.17C21.2878 369.36 17.33 373.318 17.33 378.2V411.89C17.33 416.772 21.2878 420.73 26.17 420.73Z" fill="#3585DD"/>
<path opacity="0.45" d="M26.17 321.3H137.54C142.422 321.3 146.38 317.342 146.38 312.46V278.77C146.38 273.888 142.422 269.93 137.54 269.93H26.17C21.2878 269.93 17.33 273.888 17.33 278.77V312.46C17.33 317.342 21.2878 321.3 26.17 321.3Z" fill="#3585DD"/>
<path opacity="0.45" d="M30.74 220.04L142.11 220.04C146.992 220.04 150.95 216.082 150.95 211.2V177.51C150.95 172.628 146.992 168.67 142.11 168.67H30.74C25.8578 168.67 21.9 172.628 21.9 177.51V211.2C21.9 216.082 25.8578 220.04 30.74 220.04Z" fill="#3585DD"/>
<path opacity="0.1" d="M30.74 220.04L142.11 220.04C146.992 220.04 150.95 216.082 150.95 211.2V177.51C150.95 172.628 146.992 168.67 142.11 168.67H30.74C25.8578 168.67 21.9 172.628 21.9 177.51V211.2C21.9 216.082 25.8578 220.04 30.74 220.04Z" fill="black"/>
<path opacity="0.45" d="M112.84 169.87L224.21 169.87C229.092 169.87 233.05 165.912 233.05 161.03V127.34C233.05 122.458 229.092 118.5 224.21 118.5L112.84 118.5C107.958 118.5 104 122.458 104 127.34V161.03C104 165.912 107.958 169.87 112.84 169.87Z" fill="#3585DD"/>
<path opacity="0.1" d="M225.31 471.76H336.68C341.562 471.76 345.52 467.802 345.52 462.92V429.23C345.52 424.348 341.562 420.39 336.68 420.39H225.31C220.428 420.39 216.47 424.348 216.47 429.23V462.92C216.47 467.802 220.428 471.76 225.31 471.76Z" fill="black"/>
<path opacity="0.1" d="M137.61 521.89H248.98C253.862 521.89 257.82 517.932 257.82 513.05V479.36C257.82 474.478 253.862 470.52 248.98 470.52H137.61C132.728 470.52 128.77 474.478 128.77 479.36V513.05C128.77 517.932 132.728 521.89 137.61 521.89Z" fill="black"/>
</g>
<path opacity="0.5" d="M810.34 57.84C826.312 57.84 839.26 44.8921 839.26 28.92C839.26 12.9479 826.312 0 810.34 0C794.368 0 781.42 12.9479 781.42 28.92C781.42 44.8921 794.368 57.84 810.34 57.84Z" fill="#3585DD"/>
<path opacity="0.5" d="M251.94 81.35H245.06C246.299 81.2935 247.469 80.7615 248.326 79.8647C249.182 78.9679 249.661 77.7753 249.661 76.535C249.661 75.2946 249.182 74.102 248.326 73.2052C247.469 72.3084 246.299 71.7764 245.06 71.72H189.33C188.679 71.6903 188.029 71.7929 187.419 72.0214C186.809 72.25 186.252 72.5999 185.781 73.05C185.31 73.5 184.935 74.0408 184.679 74.6398C184.423 75.2388 184.291 75.8835 184.291 76.535C184.291 77.1864 184.423 77.8311 184.679 78.4301C184.935 79.0291 185.31 79.5699 185.781 80.02C186.252 80.47 186.809 80.8199 187.419 81.0485C188.029 81.2771 188.679 81.3796 189.33 81.35H196.21C194.971 81.4064 193.801 81.9384 192.945 82.8352C192.088 83.732 191.609 84.9246 191.609 86.165C191.609 87.4053 192.088 88.5979 192.945 89.4947C193.801 90.3915 194.971 90.9235 196.21 90.98H186.58C185.929 90.9503 185.279 91.0529 184.669 91.2815C184.059 91.5101 183.502 91.8599 183.031 92.31C182.56 92.76 182.185 93.3009 181.929 93.8998C181.673 94.4988 181.541 95.1435 181.541 95.795C181.541 96.4464 181.673 97.0911 181.929 97.6901C182.185 98.2891 182.56 98.8299 183.031 99.2799C183.502 99.73 184.059 100.08 184.669 100.308C185.279 100.537 185.929 100.64 186.58 100.61H242.27C243.509 100.553 244.679 100.022 245.536 99.1247C246.392 98.2279 246.871 97.0353 246.871 95.795C246.871 94.5546 246.392 93.362 245.536 92.4652C244.679 91.5684 243.509 91.0364 242.27 90.98H251.9C253.139 90.9235 254.309 90.3915 255.166 89.4947C256.022 88.5979 256.501 87.4053 256.501 86.165C256.501 84.9246 256.022 83.732 255.166 82.8352C254.309 81.9384 253.139 81.4064 251.9 81.35H251.94Z" fill="#DEE3F3"/>
<path opacity="0.5" d="M806.67 25.44H801.43C802.369 25.3909 803.253 24.9834 803.9 24.3015C804.548 23.6195 804.909 22.7152 804.909 21.775C804.909 20.8348 804.548 19.9305 803.9 19.2485C803.253 18.5666 802.369 18.159 801.43 18.11H759.02C758.081 18.159 757.197 18.5666 756.55 19.2485C755.902 19.9305 755.542 20.8348 755.542 21.775C755.542 22.7152 755.902 23.6195 756.55 24.3015C757.197 24.9834 758.081 25.3909 759.02 25.44H764.27C763.773 25.414 763.275 25.4895 762.808 25.662C762.341 25.8344 761.913 26.1002 761.552 26.4431C761.191 26.7859 760.903 27.1988 760.706 27.6564C760.51 28.114 760.409 28.6069 760.409 29.105C760.409 29.6031 760.51 30.0959 760.706 30.5536C760.903 31.0112 761.191 31.424 761.552 31.7669C761.913 32.1098 762.341 32.3756 762.808 32.548C763.275 32.7205 763.773 32.796 764.27 32.77H756.94C756.001 32.819 755.117 33.2266 754.47 33.9085C753.822 34.5905 753.462 35.4948 753.462 36.435C753.462 37.3752 753.822 38.2795 754.47 38.9615C755.117 39.6434 756.001 40.0509 756.94 40.1H799.36C799.857 40.126 800.355 40.0504 800.822 39.878C801.289 39.7056 801.717 39.4398 802.078 39.0969C802.439 38.754 802.727 38.3412 802.924 37.8836C803.12 37.4259 803.221 36.9331 803.221 36.435C803.221 35.9369 803.12 35.444 802.924 34.9864C802.727 34.5288 802.439 34.1159 802.078 33.7731C801.717 33.4302 801.289 33.1644 800.822 32.992C800.355 32.8195 799.857 32.744 799.36 32.77H806.69C807.187 32.796 807.685 32.7205 808.152 32.548C808.619 32.3756 809.047 32.1098 809.408 31.7669C809.769 31.424 810.057 31.0112 810.254 30.5536C810.45 30.0959 810.552 29.6031 810.552 29.105C810.552 28.6069 810.45 28.114 810.254 27.6564C810.057 27.1988 809.769 26.7859 809.408 26.4431C809.047 26.1002 808.619 25.8344 808.152 25.662C807.685 25.4895 807.187 25.414 806.69 25.44H806.67Z" fill="#DEE3F3"/>
<path opacity="0.5" d="M383.94 13.35H377.06C377.711 13.3796 378.361 13.2771 378.971 13.0485C379.581 12.8199 380.138 12.47 380.609 12.02C381.08 11.5699 381.455 11.0291 381.711 10.4301C381.967 9.83111 382.1 9.18642 382.1 8.53497C382.1 7.88352 381.967 7.23883 381.711 6.63984C381.455 6.04086 381.08 5.50001 380.609 5.04998C380.138 4.59994 379.581 4.25006 378.971 4.02146C378.361 3.79287 377.711 3.6903 377.06 3.71997H321.33C320.679 3.6903 320.029 3.79287 319.419 4.02146C318.809 4.25006 318.252 4.59994 317.781 5.04998C317.31 5.50001 316.935 6.04086 316.679 6.63984C316.423 7.23883 316.291 7.88352 316.291 8.53497C316.291 9.18642 316.423 9.83111 316.679 10.4301C316.935 11.0291 317.31 11.5699 317.781 12.02C318.252 12.47 318.809 12.8199 319.419 13.0485C320.029 13.2771 320.679 13.3796 321.33 13.35H328.21C326.971 13.4064 325.801 13.9384 324.945 14.8352C324.088 15.732 323.609 16.9246 323.609 18.165C323.609 19.4053 324.088 20.5979 324.945 21.4947C325.801 22.3915 326.971 22.9235 328.21 22.98H318.58C317.929 22.9503 317.279 23.0529 316.669 23.2815C316.059 23.5101 315.502 23.8599 315.031 24.31C314.56 24.76 314.185 25.3009 313.929 25.8998C313.673 26.4988 313.541 27.1435 313.541 27.795C313.541 28.4464 313.673 29.0911 313.929 29.6901C314.185 30.2891 314.56 30.8299 315.031 31.28C315.502 31.73 316.059 32.0799 316.669 32.3085C317.279 32.5371 317.929 32.6396 318.58 32.61H374.27C375.509 32.5535 376.679 32.0215 377.536 31.1247C378.392 30.2279 378.871 29.0353 378.871 27.795C378.871 26.5546 378.392 25.362 377.536 24.4652C376.679 23.5684 375.509 23.0364 374.27 22.98H383.9C385.139 22.9235 386.309 22.3915 387.166 21.4947C388.022 20.5979 388.501 19.4053 388.501 18.165C388.501 16.9246 388.022 15.732 387.166 14.8352C386.309 13.9384 385.139 13.4064 383.9 13.35H383.94Z" fill="#DEE3F3"/>
<path d="M552.66 540.06H571.66V528.29V526.24H416.16V528.29V540.06H435.16V553.89H404.06V571.16H583.76V553.89H552.66V540.06Z" fill="url(#paint0_linear)"/>
<path d="M596.95 264.74H390.88C383.717 264.74 377.91 270.547 377.91 277.71V359.37C377.91 366.533 383.717 372.34 390.88 372.34H596.95C604.113 372.34 609.92 366.533 609.92 359.37V277.71C609.92 270.547 604.113 264.74 596.95 264.74Z" fill="#3585DD"/>
<path opacity="0.1" d="M591.42 355.83H396.4V357.85H591.42V355.83Z" fill="black"/>
<path opacity="0.3" d="M591.42 281.55H396.4V355.52H591.42V281.55Z" fill="black"/>
<path opacity="0.1" d="M441.79 346.98C456.646 346.98 468.69 334.936 468.69 320.08C468.69 305.223 456.646 293.18 441.79 293.18C426.934 293.18 414.89 305.223 414.89 320.08C414.89 334.936 426.934 346.98 441.79 346.98Z" fill="black"/>
<path xmlns="http://www.w3.org/2000/svg" d="M441.79 345.44C456.646 345.44 468.69 333.396 468.69 318.54C468.69 303.684 456.646 291.64 441.79 291.64C426.934 291.64 414.89 303.684 414.89 318.54C414.89 333.396 426.934 345.44 441.79 345.44Z" fill="#DEE3F3" class="roll1"/>
<path opacity="0.1" d="M546.03 346.98C560.886 346.98 572.93 334.936 572.93 320.08C572.93 305.223 560.886 293.18 546.03 293.18C531.174 293.18 519.13 305.223 519.13 320.08C519.13 334.936 531.174 346.98 546.03 346.98Z" fill="black"/>
<path xmlns="http://www.w3.org/2000/svg" d="M546.03 345.44C560.886 345.44 572.93 333.396 572.93 318.54C572.93 303.684 560.886 291.64 546.03 291.64C531.174 291.64 519.13 303.684 519.13 318.54C519.13 333.396 531.174 345.44 546.03 345.44Z" fill="#DEE3F3" class="roll1 "/>
<path d="M514.08 372.34H473.73V395.88H514.08V372.34Z" fill="#3585DD"/>
<path d="M577.97 389.15H409.85V523.65H577.97V389.15Z" fill="#3585DD"/>
<path d="M569.57 523.65V537.1H551.07V550.55H436.74V537.1H418.26V523.65H569.57Z" fill="#3585DD"/>
<path opacity="0.3" d="M569.57 523.65V537.1H551.07V550.55H436.74V537.1H418.26V523.65H569.57Z" fill="black"/>
<path d="M581.34 550.55H406.49V567.36H581.34V550.55Z" fill="#3585DD"/>
<path d="M488.86 567.37H414.89V584.18H488.86V567.37Z" fill="#3585DD"/>
<path d="M569.56 567.37H495.59V584.18H569.56V567.37Z" fill="#3585DD"/>
<path d="M475.42 685.05H411.53V708.59H475.42V685.05Z" fill="#3585DD"/>
<path d="M435.07 607.71V627.89V658.15V674.96V685.05H465.33V674.96V658.15V627.89V607.71V584.17H435.07V607.71Z" fill="#3585DD"/>
<path d="M525.85 584.17V607.71V627.89V658.15V674.96V685.05H556.12V674.96V658.15V627.89V607.71V584.17H525.85Z" fill="#3585DD"/>
<path d="M566.21 685.05H502.32V708.59H566.21V685.05Z" fill="#3585DD"/>
<path d="M410.49 417.73V458.08C410.49 458.38 410.49 458.69 410.49 458.98C410.241 462.002 408.835 464.811 406.566 466.822C404.297 468.833 401.339 469.89 398.309 469.774C395.28 469.658 392.411 468.377 390.303 466.199C388.194 464.02 387.007 461.112 386.99 458.08V417.73C386.988 415.403 387.677 413.127 388.969 411.192C390.261 409.256 392.098 407.748 394.248 406.857C396.398 405.966 398.764 405.733 401.047 406.188C403.329 406.642 405.425 407.764 407.07 409.41L407.35 409.7C409.175 411.651 410.28 414.166 410.48 416.83C410.47 417.12 410.49 417.43 410.49 417.73Z" fill="#3585DD"/>
<path d="M601.37 421.09V461.45C601.376 463.781 600.688 466.062 599.395 468.002C598.102 469.942 596.262 471.453 594.108 472.345C591.954 473.237 589.583 473.468 587.297 473.009C585.012 472.551 582.914 471.423 581.27 469.77L580.95 469.43C578.933 467.255 577.814 464.397 577.82 461.43V421.09C577.82 417.968 579.06 414.975 581.267 412.767C583.475 410.56 586.468 409.32 589.59 409.32C592.712 409.32 595.705 410.56 597.913 412.767C600.12 414.975 601.36 417.968 601.36 421.09H601.37Z" fill="#3585DD"/>
<path d="M386.95 419.41V450.51C378.648 451.954 370.91 455.676 364.6 461.26C358.738 466.683 354.181 473.364 351.27 480.8C347.38 490.22 345.49 500.69 344.72 510.59C343.765 523.95 344.389 537.376 346.58 550.59H312.97C311.54 532 311.97 516.06 313.85 502.36C315.93 486.92 319.77 474.36 324.64 464.14C334.38 443.71 348.24 432.62 360.41 426.6C374.87 419.41 386.95 419.41 386.95 419.41Z" fill="#3585DD" style="&#10;    transform: rotate(0deg);&#10;"/>
<path d="M319.7 604.35C319.7 604.35 285.91 571.82 312.89 549.42H346.4C346.4 549.42 349.96 604.35 319.7 604.35Z" fill="#3585DD"/>
<path opacity="0.3" d="M319.7 604.35C319.7 604.35 285.91 571.82 312.89 549.42H346.4C346.4 549.42 349.96 604.35 319.7 604.35Z" fill="black"/>
<path xmlns="http://www.w3.org/2000/svg" opacity="0.3" d="M551.07 409.33H436.75V496.75H551.07V409.33Z" fill="black" fill-opacity="0.95"/>
<path opacity="0.3" d="M465.33 584.17H435.07V607.71H465.33V584.17Z" fill="black"/>
<path opacity="0.3" d="M465.33 627.89H435.07V658.15H465.33V627.89Z" fill="black"/>
<path opacity="0.3" d="M465.33 674.96H435.07V685.05H465.33V674.96Z" fill="black"/>
<path opacity="0.3" d="M556.11 584.17H525.85V607.71H556.11V584.17Z" fill="black"/>
<path opacity="0.3" d="M556.11 627.89H525.85V658.15H556.11V627.89Z" fill="black"/>
<path opacity="0.3" d="M556.11 674.96H525.85V685.05H556.11V674.96Z" fill="black"/>
<path opacity="0.3" d="M386.95 419.41V450.51C378.648 451.954 370.91 455.676 364.6 461.26L360.42 426.53C374.87 419.41 386.95 419.41 386.95 419.41Z" fill="black"/>
<path opacity="0.3" d="M351.27 480.8C347.38 490.22 345.49 500.69 344.72 510.59L313.84 502.32C315.92 486.88 319.76 474.32 324.63 464.1L351.27 480.8Z" fill="black"/>
<path d="M600.88 419.41V450.51C609.196 451.947 616.948 455.669 623.27 461.26C629.121 466.677 633.671 473.346 636.58 480.77C640.47 490.19 642.36 500.66 643.13 510.56C644.085 523.92 643.461 537.346 641.27 550.56H674.89C676.32 531.97 675.89 516.03 674.01 502.33C671.93 486.89 668.09 474.33 663.22 464.11C653.48 443.68 639.62 432.59 627.45 426.57C612.96 419.41 600.88 419.41 600.88 419.41Z" fill="#3585DD"/>
<path d="M668.13 604.35C668.13 604.35 701.92 571.82 674.94 549.42H641.42C641.42 549.42 637.87 604.35 668.13 604.35Z" fill="#3585DD"/>
<path opacity="0.3" d="M668.13 604.35C668.13 604.35 701.92 571.82 674.94 549.42H641.42C641.42 549.42 637.87 604.35 668.13 604.35Z" fill="black"/>
<path opacity="0.3" d="M600.88 419.41V450.51C609.196 451.947 616.948 455.669 623.27 461.26L627.45 426.53C612.96 419.41 600.88 419.41 600.88 419.41Z" fill="black"/>
<path opacity="0.3" d="M636.54 480.8C640.43 490.22 642.32 500.69 643.09 510.59L673.97 502.32C671.89 486.88 668.05 474.32 663.18 464.1L636.54 480.8Z" fill="black"/>
<path opacity="0.1" d="M514.08 372.34H473.73V375.13H514.08V372.34Z" fill="black"/>
<path opacity="0.1" d="M580.96 413.12V469.43C578.943 467.255 577.824 464.397 577.83 461.43V421.09C577.83 418.133 578.948 415.286 580.96 413.12V413.12Z" fill="black"/>
<path opacity="0.1" d="M410.45 416.83V458.98C410.25 461.644 409.145 464.159 407.32 466.11V409.7C409.145 411.65 410.25 414.166 410.45 416.83V416.83Z" fill="black"/>
<path opacity="0.1" d="M569.57 523.65H418.26V525.64H569.57V523.65Z" fill="black"/>
<path opacity="0.1" d="M488.86 567.37H414.89V568.91H488.86V567.37Z" fill="black"/>
<path opacity="0.1" d="M569.56 567.37H495.59V568.91H569.56V567.37Z" fill="black"/>
<path d="M434.72 165.17H423.14V264.75H434.72V165.17Z" fill="#3585DD"/>
<path d="M567.49 165.17H555.91V264.75H567.49V165.17Z" fill="#3585DD"/>
<path opacity="0.1" d="M428.55 179.06C435.796 179.06 441.67 173.186 441.67 165.94C441.67 158.694 435.796 152.82 428.55 152.82C421.304 152.82 415.43 158.694 415.43 165.94C415.43 173.186 421.304 179.06 428.55 179.06Z" fill="black"/>
<path d="M428.55 178.29C435.796 178.29 441.67 172.416 441.67 165.17C441.67 157.924 435.796 152.05 428.55 152.05C421.304 152.05 415.43 157.924 415.43 165.17C415.43 172.416 421.304 178.29 428.55 178.29Z" fill="#3585DD" style="&#10;"/>
<path opacity="0.1" d="M562.09 179.06C569.336 179.06 575.21 173.186 575.21 165.94C575.21 158.694 569.336 152.82 562.09 152.82C554.844 152.82 548.97 158.694 548.97 165.94C548.97 173.186 554.844 179.06 562.09 179.06Z" fill="black"/>
<path d="M562.09 178.29C569.336 178.29 575.21 172.416 575.21 165.17C575.21 157.924 569.336 152.05 562.09 152.05C554.844 152.05 548.97 157.924 548.97 165.17C548.97 172.416 554.844 178.29 562.09 178.29Z" fill="#3585DD"/>
<path d="M151.53 470.26C151.53 470.26 189.93 545.64 158.64 586.88C127.35 628.12 161.48 740.48 161.48 740.48" stroke="#FC6681" stroke-width="2" stroke-miterlimit="10"/>
<path d="M162.9 446.74C162.9 461.26 152.27 473.06 152.27 473.06C152.27 473.06 141.57 461.26 141.57 446.74C141.57 432.22 152.27 420.43 152.27 420.43C152.27 420.43 162.9 432.26 162.9 446.74Z" fill="#FC6681"/>
<path d="M171.44 470.26C171.44 470.26 133.04 545.64 164.33 586.88C195.62 628.12 161.49 740.48 161.49 740.48" stroke="#FFD037" stroke-width="2" stroke-miterlimit="10"/>
<path d="M160.06 446.74C160.06 461.27 170.73 473.05 170.73 473.05C170.73 473.05 181.4 461.27 181.4 446.74C181.4 432.21 170.73 420.43 170.73 420.43C170.73 420.43 160.06 432.26 160.06 446.74Z" fill="#FFD037"/>
<path d="M187.08 470.26C187.08 470.26 225.48 545.64 194.19 586.88C162.9 628.12 197.03 740.48 197.03 740.48" stroke="#FC6681" stroke-width="2" stroke-miterlimit="10"/>
<path d="M198.46 446.74C198.46 461.27 187.79 473.05 187.79 473.05C187.79 473.05 177.13 461.26 177.13 446.74C177.13 432.22 187.8 420.43 187.8 420.43C187.8 420.43 198.46 432.26 198.46 446.74Z" fill="#FC6681"/>
<path d="M192.48 507.14C182.41 517.61 166.55 518.71 166.55 518.71C166.55 518.71 167.03 502.83 177.1 492.35C187.17 481.87 203.03 480.78 203.03 480.78C203.03 480.78 202.55 496.67 192.48 507.14Z" fill="#FC6681"/>
<path d="M193.48 559.14C183.41 569.61 167.55 570.71 167.55 570.71C167.55 570.71 168.03 554.83 178.1 544.35C188.17 533.87 204.03 532.78 204.03 532.78C204.03 532.78 203.55 548.67 193.48 559.14Z" fill="#FC6681"/>
<path d="M138.85 587.75C148.38 598.75 148.04 614.61 148.04 614.61C148.04 614.61 132.26 612.71 122.74 601.74C113.22 590.77 113.55 574.88 113.55 574.88C113.55 574.88 129.32 576.78 138.85 587.75Z" fill="#FC6681"/>
<path d="M147.69 476.85C159.8 484.85 163.69 500.28 163.69 500.28C163.69 500.28 147.98 502.66 135.87 494.64C123.76 486.62 119.87 471.21 119.87 471.21C119.87 471.21 135.57 468.83 147.69 476.85Z" fill="#FC6681"/>
<path d="M206.99 470.26C206.99 470.26 168.59 545.64 199.88 586.88C231.17 628.12 197.04 740.48 197.04 740.48" stroke="#FFD037" stroke-width="2" stroke-miterlimit="10"/>
<path d="M195.62 446.74C195.62 461.26 206.27 473.06 206.27 473.06C206.27 473.06 216.94 461.28 216.94 446.75C216.94 432.22 206.27 420.43 206.27 420.43C206.27 420.43 195.62 432.26 195.62 446.74Z" fill="#FFD037"/>
<path d="M198.68 508.26C188.48 518.61 187.81 534.49 187.81 534.49C187.81 534.49 203.68 533.59 213.88 523.24C224.08 512.89 224.75 497.01 224.75 497.01C224.75 497.01 208.88 497.91 198.68 508.26Z" fill="#FFD037"/>
<path d="M218.68 580.26C208.48 590.61 207.81 606.49 207.81 606.49C207.81 606.49 223.68 605.59 233.88 595.24C244.08 584.89 244.75 569.01 244.75 569.01C244.75 569.01 228.88 569.91 218.68 580.26Z" fill="#FFD037"/>
<path d="M189.27 564.43C189.27 564.43 212.39 527.99 244.83 527.21" stroke="#FFD037" stroke-width="2" stroke-miterlimit="10"/>
<path d="M171.27 542.43C171.27 542.43 148.14 506 115.7 505.26" stroke="#FC6681" stroke-width="2" stroke-miterlimit="10"/>
<path d="M168.27 594.43C168.27 594.43 191.39 557.99 223.83 557.21" stroke="#FFD037" stroke-width="2" stroke-miterlimit="10"/>
<path d="M243.76 532.93C247.074 532.93 249.76 530.244 249.76 526.93C249.76 523.616 247.074 520.93 243.76 520.93C240.446 520.93 237.76 523.616 237.76 526.93C237.76 530.244 240.446 532.93 243.76 532.93Z" fill="#FFD037"/>
<path d="M116.26 511.43C119.574 511.43 122.26 508.744 122.26 505.43C122.26 502.116 119.574 499.43 116.26 499.43C112.946 499.43 110.26 502.116 110.26 505.43C110.26 508.744 112.946 511.43 116.26 511.43Z" fill="#FC6681"/>
<path d="M185.27 606.43C185.27 606.43 162.14 570 129.7 569.26" stroke="#FC6681" stroke-width="2" stroke-miterlimit="10"/>
<path d="M130.26 575.43C133.574 575.43 136.26 572.744 136.26 569.43C136.26 566.116 133.574 563.43 130.26 563.43C126.946 563.43 124.26 566.116 124.26 569.43C124.26 572.744 126.946 575.43 130.26 575.43Z" fill="#FC6681"/>
<path d="M224.26 563.43C227.574 563.43 230.26 560.744 230.26 557.43C230.26 554.116 227.574 551.43 224.26 551.43C220.946 551.43 218.26 554.116 218.26 557.43C218.26 560.744 220.946 563.43 224.26 563.43Z" fill="#FFD037"/>
<path d="M313.03 696.67C313.03 696.67 257.33 685.53 242.47 670.67C227.61 655.81 160.77 629.82 153.34 648.39C145.91 666.96 53.0801 730.09 116.21 741.26C179.34 752.43 264.75 756.11 283.32 748.69C301.89 741.27 313.03 696.67 313.03 696.67Z" fill="#A8A8A8"/>
<path opacity="0.2" d="M116.21 734.33C179.34 745.47 264.75 749.18 283.32 741.76C297.46 736.1 307.32 708.93 311.17 696.28L313.03 696.67C313.03 696.67 301.89 741.23 283.32 748.67C264.75 756.11 179.32 752.38 116.21 741.24C97.99 738.02 92.78 730.47 94.74 720.91C96.27 727.14 102.65 731.94 116.21 734.33Z" fill="black"/>
<path d="M914.65 483.52C914.65 483.52 928 500.97 908.49 527.33C888.98 553.69 872.9 575.93 879.4 592.33C879.4 592.33 908.83 543.39 932.79 542.71C956.75 542.03 941.01 512.95 914.65 483.52Z" fill="#FC6681"/>
<path opacity="0.1" d="M914.65 483.52C915.815 485.205 916.734 487.047 917.38 488.99C940.75 516.45 953.21 542.08 930.74 542.72C909.81 543.32 884.74 580.72 878.74 590.19C878.936 590.919 879.173 591.637 879.45 592.34C879.45 592.34 908.88 543.4 932.84 542.72C956.8 542.04 941.01 512.95 914.65 483.52Z" fill="black"/>
<path d="M939.47 505.76C939.47 511.9 938.78 516.88 937.93 516.88C937.08 516.88 936.39 511.88 936.39 505.76C936.39 499.64 937.25 502.51 938.1 502.51C938.95 502.51 939.47 499.62 939.47 505.76Z" fill="#FFD037"/>
<path d="M947.98 513.1C942.59 516.04 937.88 517.82 937.48 517.1C937.08 516.38 941.12 513.36 946.48 510.42C951.84 507.48 949.75 509.62 950.15 510.37C950.55 511.12 953.37 510.16 947.98 513.1Z" fill="#FFD037"/>
<path d="M844.16 483.52C844.16 483.52 830.81 500.97 850.32 527.33C869.83 553.69 885.91 575.93 879.41 592.33C879.41 592.33 849.98 543.39 826.02 542.71C802.06 542.03 817.8 512.95 844.16 483.52Z" fill="#FC6681"/>
<path opacity="0.1" d="M844.16 483.52C842.996 485.205 842.076 487.047 841.43 488.99C818.06 516.45 805.6 542.08 828.07 542.72C849 543.32 874.07 580.72 880.07 590.19C879.874 590.919 879.637 591.637 879.36 592.34C879.36 592.34 849.93 543.4 825.97 542.72C802.01 542.04 817.8 512.95 844.16 483.52Z" fill="black"/>
<path d="M819.34 505.76C819.34 511.9 820.03 516.88 820.88 516.88C821.73 516.88 822.42 511.88 822.42 505.76C822.42 499.64 821.56 502.51 820.71 502.51C819.86 502.51 819.34 499.62 819.34 505.76Z" fill="#FFD037"/>
<path d="M810.83 513.1C816.22 516.04 820.93 517.82 821.33 517.1C821.73 516.38 817.69 513.36 812.33 510.42C806.97 507.48 809.06 509.62 808.66 510.37C808.26 511.12 805.44 510.16 810.83 513.1Z" fill="#FFD037"/>
<path d="M823.59 590.06C823.59 590.06 860.91 588.91 872.15 580.9C883.39 572.89 929.55 563.33 932.34 576.17C935.13 589.01 988.42 640.05 946.29 640.39C904.16 640.73 848.4 633.83 837.17 626.99C825.94 620.15 823.59 590.06 823.59 590.06Z" fill="#A8A8A8"/>
<path opacity="0.2" d="M947.05 635.93C904.92 636.27 849.16 629.37 837.93 622.53C829.38 617.32 825.93 598.64 824.84 590.02H823.59C823.59 590.02 825.95 620.12 837.18 626.95C848.41 633.78 904.18 640.69 946.3 640.35C958.46 640.25 962.66 635.93 962.43 629.52C960.74 633.44 956.1 635.85 947.05 635.93Z" fill="black"/>
<path xmlns="http://www.w3.org/2000/svg" d="M482.784 425L469 469.76L533 425L505.182 425L497.429 493L482.784 425Z" fill="#DEE3F3" class="roll                                                                                             "/>
</g>
<defs>
<linearGradient id="paint0_linear" x1="493.91" y1="571.16" x2="493.91" y2="526.24" gradientUnits="userSpaceOnUse">
<stop stop-color="#808080" stop-opacity="0.25"/>
<stop offset="0.54" stop-color="#808080" stop-opacity="0.12"/>
<stop offset="1" stop-color="#808080" stop-opacity="0.1"/>
</linearGradient>
<clipPath id="clip0">
<rect width="1028.53" height="752.52" fill="white"/>
</clipPath>
</defs>
</svg>